<mxfile host="app.diagrams.net" modified="2023-12-02T05:28:36.478Z" agent="Mozilla/5.0 (Macintosh; Intel Mac OS X 10.15; rv:120.0) Gecko/20100101 Firefox/120.0" etag="a1xX_xd4hnejah_kSMpf" version="22.1.5" type="device">
  <diagram name="PÃ¡gina-1" id="hw6YbVu_IpaQcz2jU82p">
    <mxGraphModel dx="2203" dy="2023" grid="1" gridSize="10" guides="1" tooltips="1" connect="1" arrows="1" fold="1" page="1" pageScale="1" pageWidth="827" pageHeight="1169" math="0" shadow="0">
      <root>
        <mxCell id="0" />
        <mxCell id="1" parent="0" />
        <mxCell id="Y-_55_ya9VjyHDabUnFr-41" style="edgeStyle=orthogonalEdgeStyle;rounded=0;orthogonalLoop=1;jettySize=auto;html=1;exitX=0.5;exitY=1;exitDx=0;exitDy=0;entryX=0;entryY=0.5;entryDx=0;entryDy=0;shape=link;" parent="1" source="cc5oqjslnrZ3DRCShtl0-1" target="cc5oqjslnrZ3DRCShtl0-49" edge="1">
          <mxGeometry relative="1" as="geometry" />
        </mxCell>
        <mxCell id="cc5oqjslnrZ3DRCShtl0-1" value="&lt;font style=&quot;font-size: 16px;&quot;&gt;&lt;span&gt;Trabajador&lt;/span&gt;&lt;/font&gt;" style="whiteSpace=wrap;html=1;align=center;strokeWidth=2;fontStyle=1" parent="1" vertex="1">
          <mxGeometry x="120" y="160" width="100" height="40" as="geometry" />
        </mxCell>
        <mxCell id="cc5oqjslnrZ3DRCShtl0-7" value="&lt;font style=&quot;font-size: 16px;&quot;&gt;&lt;b&gt;Direccion&lt;/b&gt;&lt;/font&gt;" style="ellipse;whiteSpace=wrap;html=1;align=center;strokeWidth=2;" parent="1" vertex="1">
          <mxGeometry x="-180" y="180" width="100" height="40" as="geometry" />
        </mxCell>
        <mxCell id="cc5oqjslnrZ3DRCShtl0-8" value="&lt;font style=&quot;font-size: 16px;&quot;&gt;&lt;b&gt;Calle&lt;br&gt;&lt;/b&gt;&lt;/font&gt;" style="ellipse;whiteSpace=wrap;html=1;align=center;strokeWidth=2;" parent="1" vertex="1">
          <mxGeometry x="-300" y="210" width="100" height="40" as="geometry" />
        </mxCell>
        <mxCell id="cc5oqjslnrZ3DRCShtl0-10" value="&lt;font style=&quot;font-size: 16px;&quot;&gt;&lt;b&gt;Num_Int&lt;br&gt;&lt;/b&gt;&lt;/font&gt;" style="ellipse;whiteSpace=wrap;html=1;align=center;strokeWidth=2;" parent="1" vertex="1">
          <mxGeometry x="-160" y="70" width="100" height="40" as="geometry" />
        </mxCell>
        <mxCell id="cc5oqjslnrZ3DRCShtl0-11" value="&lt;font style=&quot;font-size: 16px;&quot;&gt;&lt;b&gt;Num_Ext&lt;/b&gt;&lt;/font&gt;" style="ellipse;whiteSpace=wrap;html=1;align=center;strokeWidth=2;" parent="1" vertex="1">
          <mxGeometry x="-230" y="110" width="100" height="40" as="geometry" />
        </mxCell>
        <mxCell id="cc5oqjslnrZ3DRCShtl0-12" value="&lt;font style=&quot;font-size: 16px;&quot;&gt;&lt;b&gt;Colonia&lt;/b&gt;&lt;/font&gt;" style="ellipse;whiteSpace=wrap;html=1;align=center;strokeWidth=2;" parent="1" vertex="1">
          <mxGeometry x="-280" y="150" width="100" height="40" as="geometry" />
        </mxCell>
        <mxCell id="cc5oqjslnrZ3DRCShtl0-13" value="&lt;font style=&quot;font-size: 16px;&quot;&gt;&lt;b&gt;Estado&lt;/b&gt;&lt;/font&gt;" style="ellipse;whiteSpace=wrap;html=1;align=center;strokeWidth=2;" parent="1" vertex="1">
          <mxGeometry x="-100" y="110" width="100" height="40" as="geometry" />
        </mxCell>
        <mxCell id="cc5oqjslnrZ3DRCShtl0-15" value="&lt;font style=&quot;font-size: 16px;&quot;&gt;&lt;b&gt;FechaIn_Con&lt;/b&gt;&lt;/font&gt;" style="ellipse;whiteSpace=wrap;html=1;align=center;strokeWidth=2;" parent="1" vertex="1">
          <mxGeometry x="-50" y="230" width="120" height="40" as="geometry" />
        </mxCell>
        <mxCell id="cc5oqjslnrZ3DRCShtl0-16" value="&lt;font style=&quot;font-size: 16px;&quot;&gt;&lt;b&gt;FechaFin_Con&lt;/b&gt;&lt;/font&gt;" style="ellipse;whiteSpace=wrap;html=1;align=center;strokeWidth=2;" parent="1" vertex="1">
          <mxGeometry x="250" y="215" width="120" height="50" as="geometry" />
        </mxCell>
        <mxCell id="cc5oqjslnrZ3DRCShtl0-25" value="" style="endArrow=none;html=1;rounded=0;entryX=1;entryY=0.5;entryDx=0;entryDy=0;strokeWidth=2;exitX=0;exitY=0.5;exitDx=0;exitDy=0;" parent="1" source="cc5oqjslnrZ3DRCShtl0-1" target="cc5oqjslnrZ3DRCShtl0-7" edge="1">
          <mxGeometry relative="1" as="geometry">
            <mxPoint x="105.9" y="210" as="sourcePoint" />
            <mxPoint x="465.9" y="310" as="targetPoint" />
          </mxGeometry>
        </mxCell>
        <mxCell id="cc5oqjslnrZ3DRCShtl0-27" value="" style="endArrow=none;html=1;rounded=0;exitX=0.75;exitY=0.063;exitDx=0;exitDy=0;entryX=0.26;entryY=0.938;entryDx=0;entryDy=0;entryPerimeter=0;strokeWidth=2;exitPerimeter=0;" parent="1" source="cc5oqjslnrZ3DRCShtl0-7" target="cc5oqjslnrZ3DRCShtl0-13" edge="1">
          <mxGeometry relative="1" as="geometry">
            <mxPoint x="-140" y="270" as="sourcePoint" />
            <mxPoint x="-138" y="239" as="targetPoint" />
          </mxGeometry>
        </mxCell>
        <mxCell id="cc5oqjslnrZ3DRCShtl0-28" value="" style="endArrow=none;html=1;rounded=0;entryX=0.5;entryY=1;entryDx=0;entryDy=0;strokeWidth=2;exitX=0.5;exitY=0;exitDx=0;exitDy=0;" parent="1" source="cc5oqjslnrZ3DRCShtl0-7" target="cc5oqjslnrZ3DRCShtl0-10" edge="1">
          <mxGeometry relative="1" as="geometry">
            <mxPoint x="-130" y="190" as="sourcePoint" />
            <mxPoint x="-128" y="249" as="targetPoint" />
          </mxGeometry>
        </mxCell>
        <mxCell id="cc5oqjslnrZ3DRCShtl0-30" value="" style="endArrow=none;html=1;rounded=0;exitX=0.38;exitY=0.013;exitDx=0;exitDy=0;entryX=0.68;entryY=0.963;entryDx=0;entryDy=0;entryPerimeter=0;strokeWidth=2;exitPerimeter=0;" parent="1" source="cc5oqjslnrZ3DRCShtl0-7" target="cc5oqjslnrZ3DRCShtl0-11" edge="1">
          <mxGeometry relative="1" as="geometry">
            <mxPoint x="-120" y="290" as="sourcePoint" />
            <mxPoint x="-118" y="259" as="targetPoint" />
          </mxGeometry>
        </mxCell>
        <mxCell id="cc5oqjslnrZ3DRCShtl0-31" value="" style="endArrow=none;html=1;rounded=0;exitX=0;exitY=0;exitDx=0;exitDy=0;entryX=1;entryY=1;entryDx=0;entryDy=0;strokeWidth=2;" parent="1" source="cc5oqjslnrZ3DRCShtl0-7" target="cc5oqjslnrZ3DRCShtl0-12" edge="1">
          <mxGeometry relative="1" as="geometry">
            <mxPoint x="-110" y="300" as="sourcePoint" />
            <mxPoint x="-108" y="269" as="targetPoint" />
          </mxGeometry>
        </mxCell>
        <mxCell id="cc5oqjslnrZ3DRCShtl0-32" value="" style="endArrow=none;html=1;rounded=0;exitX=0;exitY=1;exitDx=0;exitDy=0;entryX=1;entryY=0.5;entryDx=0;entryDy=0;strokeWidth=2;" parent="1" source="cc5oqjslnrZ3DRCShtl0-7" target="cc5oqjslnrZ3DRCShtl0-8" edge="1">
          <mxGeometry relative="1" as="geometry">
            <mxPoint x="-100" y="310" as="sourcePoint" />
            <mxPoint x="-98" y="279" as="targetPoint" />
          </mxGeometry>
        </mxCell>
        <mxCell id="cc5oqjslnrZ3DRCShtl0-37" value="" style="endArrow=none;html=1;rounded=0;exitX=0.5;exitY=0;exitDx=0;exitDy=0;entryX=0.16;entryY=0.988;entryDx=0;entryDy=0;strokeWidth=2;entryPerimeter=0;" parent="1" source="cc5oqjslnrZ3DRCShtl0-15" target="cc5oqjslnrZ3DRCShtl0-1" edge="1">
          <mxGeometry relative="1" as="geometry">
            <mxPoint x="110" y="190" as="sourcePoint" />
            <mxPoint x="140" y="190" as="targetPoint" />
          </mxGeometry>
        </mxCell>
        <mxCell id="cc5oqjslnrZ3DRCShtl0-40" value="" style="endArrow=none;html=1;rounded=0;exitX=0;exitY=0;exitDx=0;exitDy=0;entryX=1;entryY=1;entryDx=0;entryDy=0;strokeWidth=2;elbow=vertical;" parent="1" source="cc5oqjslnrZ3DRCShtl0-16" target="cc5oqjslnrZ3DRCShtl0-1" edge="1">
          <mxGeometry relative="1" as="geometry">
            <mxPoint x="130" y="210" as="sourcePoint" />
            <mxPoint x="160" y="210" as="targetPoint" />
          </mxGeometry>
        </mxCell>
        <mxCell id="cc5oqjslnrZ3DRCShtl0-49" value="" style="triangle;whiteSpace=wrap;html=1;shadow=0;strokeColor=default;strokeWidth=2;fontFamily=Helvetica;fontSize=12;fontColor=default;fillColor=default;rotation=90;" parent="1" vertex="1">
          <mxGeometry x="140" y="430" width="60" height="80" as="geometry" />
        </mxCell>
        <mxCell id="cc5oqjslnrZ3DRCShtl0-51" value="&lt;font style=&quot;font-size: 16px;&quot;&gt;&lt;b&gt;Veterinario&lt;br&gt;&lt;/b&gt;&lt;/font&gt;" style="whiteSpace=wrap;html=1;align=center;strokeWidth=2;" parent="1" vertex="1">
          <mxGeometry x="-220" y="550" width="100" height="40" as="geometry" />
        </mxCell>
        <mxCell id="cc5oqjslnrZ3DRCShtl0-52" value="&lt;font style=&quot;font-size: 16px;&quot;&gt;&lt;b&gt;Cuidador&lt;/b&gt;&lt;/font&gt;" style="whiteSpace=wrap;html=1;align=center;strokeWidth=2;" parent="1" vertex="1">
          <mxGeometry x="120" y="550" width="100" height="40" as="geometry" />
        </mxCell>
        <mxCell id="CCVpfl_Kz8rF-1x_p7pF-2" style="edgeStyle=orthogonalEdgeStyle;rounded=0;orthogonalLoop=1;jettySize=auto;html=1;exitX=0;exitY=0.5;exitDx=0;exitDy=0;entryX=0.5;entryY=1;entryDx=0;entryDy=0;" parent="1" source="CCVpfl_Kz8rF-1x_p7pF-1" target="cc5oqjslnrZ3DRCShtl0-53" edge="1">
          <mxGeometry relative="1" as="geometry" />
        </mxCell>
        <mxCell id="cc5oqjslnrZ3DRCShtl0-53" value="&lt;font style=&quot;font-size: 16px;&quot;&gt;&lt;b&gt;Proveedor&lt;/b&gt;&lt;/font&gt;" style="whiteSpace=wrap;html=1;align=center;strokeWidth=2;" parent="1" vertex="1">
          <mxGeometry x="450" y="550" width="100" height="40" as="geometry" />
        </mxCell>
        <mxCell id="cc5oqjslnrZ3DRCShtl0-54" value="" style="endArrow=none;html=1;rounded=0;exitX=0.5;exitY=0;exitDx=0;exitDy=0;entryX=0.5;entryY=1;entryDx=0;entryDy=0;strokeWidth=2;" parent="1" source="cc5oqjslnrZ3DRCShtl0-51" edge="1">
          <mxGeometry relative="1" as="geometry">
            <mxPoint x="70" y="470" as="sourcePoint" />
            <mxPoint x="150" y="470" as="targetPoint" />
          </mxGeometry>
        </mxCell>
        <mxCell id="cc5oqjslnrZ3DRCShtl0-55" value="" style="endArrow=none;html=1;rounded=0;exitX=0.5;exitY=0;exitDx=0;exitDy=0;entryX=1;entryY=0.5;entryDx=0;entryDy=0;strokeWidth=2;" parent="1" source="cc5oqjslnrZ3DRCShtl0-52" edge="1">
          <mxGeometry relative="1" as="geometry">
            <mxPoint x="30" y="560" as="sourcePoint" />
            <mxPoint x="170" y="500" as="targetPoint" />
          </mxGeometry>
        </mxCell>
        <mxCell id="cc5oqjslnrZ3DRCShtl0-56" value="" style="endArrow=none;html=1;rounded=0;exitX=0.5;exitY=0;exitDx=0;exitDy=0;entryX=0.5;entryY=0;entryDx=0;entryDy=0;strokeWidth=2;" parent="1" source="cc5oqjslnrZ3DRCShtl0-53" edge="1">
          <mxGeometry relative="1" as="geometry">
            <mxPoint x="180" y="560" as="sourcePoint" />
            <mxPoint x="190" y="470" as="targetPoint" />
          </mxGeometry>
        </mxCell>
        <mxCell id="cc5oqjslnrZ3DRCShtl0-58" value="&lt;font style=&quot;font-size: 16px;&quot;&gt;&lt;b&gt;d&lt;/b&gt;&lt;/font&gt;" style="text;html=1;strokeColor=none;fillColor=none;align=center;verticalAlign=middle;whiteSpace=wrap;rounded=0;fontSize=12;fontFamily=Helvetica;fontColor=default;" parent="1" vertex="1">
          <mxGeometry x="140" y="450" width="60" height="30" as="geometry" />
        </mxCell>
        <mxCell id="cc5oqjslnrZ3DRCShtl0-60" value="&lt;font style=&quot;font-size: 16px;&quot;&gt;&lt;b&gt;Salario&lt;br&gt;&lt;/b&gt;&lt;/font&gt;" style="ellipse;whiteSpace=wrap;html=1;align=center;strokeWidth=2;" parent="1" vertex="1">
          <mxGeometry x="-370" y="480" width="120" height="40" as="geometry" />
        </mxCell>
        <mxCell id="cc5oqjslnrZ3DRCShtl0-61" value="&lt;font style=&quot;font-size: 16px;&quot;&gt;&lt;b&gt;Animal_Enc&lt;/b&gt;&lt;/font&gt;" style="ellipse;whiteSpace=wrap;html=1;align=center;strokeWidth=1;dashed=1;" parent="1" vertex="1">
          <mxGeometry x="-130" y="730" width="120" height="40" as="geometry" />
        </mxCell>
        <mxCell id="cc5oqjslnrZ3DRCShtl0-62" value="&lt;font style=&quot;font-size: 16px;&quot;&gt;&lt;b&gt;Dias_Trab&lt;/b&gt;&lt;/font&gt;" style="ellipse;whiteSpace=wrap;html=1;align=center;strokeWidth=2;" parent="1" vertex="1">
          <mxGeometry x="270" y="530" width="120" height="40" as="geometry" />
        </mxCell>
        <mxCell id="cc5oqjslnrZ3DRCShtl0-63" value="&lt;font style=&quot;font-size: 16px;&quot;&gt;&lt;b&gt;Horario_Lab&lt;/b&gt;&lt;/font&gt;" style="ellipse;whiteSpace=wrap;html=1;align=center;strokeWidth=1;dashed=1;" parent="1" vertex="1">
          <mxGeometry x="-60" y="570" width="120" height="40" as="geometry" />
        </mxCell>
        <mxCell id="cc5oqjslnrZ3DRCShtl0-64" value="&lt;font style=&quot;font-size: 16px;&quot;&gt;&lt;b&gt;Salario&lt;/b&gt;&lt;/font&gt;" style="ellipse;whiteSpace=wrap;html=1;align=center;strokeWidth=2;" parent="1" vertex="1">
          <mxGeometry x="280" y="585" width="120" height="40" as="geometry" />
        </mxCell>
        <mxCell id="cc5oqjslnrZ3DRCShtl0-65" value="&lt;font size=&quot;1&quot;&gt;&lt;b style=&quot;font-size: 16px;&quot;&gt;Nombre_Prod&lt;/b&gt;&lt;/font&gt;" style="ellipse;whiteSpace=wrap;html=1;align=center;strokeWidth=2;" parent="1" vertex="1">
          <mxGeometry x="590" y="560" width="120" height="40" as="geometry" />
        </mxCell>
        <mxCell id="cc5oqjslnrZ3DRCShtl0-66" value="&lt;span style=&quot;font-size: 16px;&quot;&gt;&lt;b&gt;Frecuencia&lt;/b&gt;&lt;/span&gt;" style="ellipse;whiteSpace=wrap;html=1;align=center;strokeWidth=2;" parent="1" vertex="1">
          <mxGeometry x="560" y="610" width="120" height="40" as="geometry" />
        </mxCell>
        <mxCell id="cc5oqjslnrZ3DRCShtl0-67" value="&lt;span style=&quot;font-size: 16px;&quot;&gt;&lt;b&gt;Costo_Prod&lt;/b&gt;&lt;/span&gt;" style="ellipse;whiteSpace=wrap;html=1;align=center;strokeWidth=2;" parent="1" vertex="1">
          <mxGeometry x="590" y="500" width="120" height="40" as="geometry" />
        </mxCell>
        <mxCell id="cc5oqjslnrZ3DRCShtl0-68" value="" style="endArrow=none;html=1;rounded=0;exitX=1;exitY=0.5;exitDx=0;exitDy=0;entryX=0;entryY=0.5;entryDx=0;entryDy=0;strokeWidth=2;" parent="1" source="cc5oqjslnrZ3DRCShtl0-78" target="cc5oqjslnrZ3DRCShtl0-51" edge="1">
          <mxGeometry relative="1" as="geometry">
            <mxPoint x="-240" y="570" as="sourcePoint" />
            <mxPoint x="-50" y="480" as="targetPoint" />
          </mxGeometry>
        </mxCell>
        <mxCell id="cc5oqjslnrZ3DRCShtl0-69" value="" style="endArrow=none;html=1;rounded=0;exitX=0.741;exitY=0.958;exitDx=0;exitDy=0;entryX=0;entryY=0;entryDx=0;entryDy=0;strokeWidth=2;exitPerimeter=0;" parent="1" source="cc5oqjslnrZ3DRCShtl0-60" target="cc5oqjslnrZ3DRCShtl0-51" edge="1">
          <mxGeometry relative="1" as="geometry">
            <mxPoint x="-150" y="570" as="sourcePoint" />
            <mxPoint x="-40" y="490" as="targetPoint" />
          </mxGeometry>
        </mxCell>
        <mxCell id="cc5oqjslnrZ3DRCShtl0-74" value="" style="endArrow=none;html=1;rounded=0;exitX=0;exitY=0;exitDx=0;exitDy=0;entryX=1;entryY=0.75;entryDx=0;entryDy=0;strokeWidth=2;" parent="1" source="cc5oqjslnrZ3DRCShtl0-64" target="cc5oqjslnrZ3DRCShtl0-52" edge="1">
          <mxGeometry relative="1" as="geometry">
            <mxPoint x="110" y="640" as="sourcePoint" />
            <mxPoint x="140" y="610" as="targetPoint" />
          </mxGeometry>
        </mxCell>
        <mxCell id="cc5oqjslnrZ3DRCShtl0-75" value="" style="endArrow=none;html=1;rounded=0;exitX=1;exitY=0.5;exitDx=0;exitDy=0;entryX=0;entryY=0.5;entryDx=0;entryDy=0;strokeWidth=2;" parent="1" source="cc5oqjslnrZ3DRCShtl0-53" target="cc5oqjslnrZ3DRCShtl0-65" edge="1">
          <mxGeometry relative="1" as="geometry">
            <mxPoint x="310" y="650" as="sourcePoint" />
            <mxPoint x="340" y="620" as="targetPoint" />
          </mxGeometry>
        </mxCell>
        <mxCell id="cc5oqjslnrZ3DRCShtl0-76" value="" style="endArrow=none;html=1;rounded=0;exitX=0.94;exitY=0.975;exitDx=0;exitDy=0;entryX=0;entryY=0.5;entryDx=0;entryDy=0;strokeWidth=2;exitPerimeter=0;" parent="1" source="cc5oqjslnrZ3DRCShtl0-53" target="cc5oqjslnrZ3DRCShtl0-66" edge="1">
          <mxGeometry relative="1" as="geometry">
            <mxPoint x="320" y="660" as="sourcePoint" />
            <mxPoint x="350" y="630" as="targetPoint" />
          </mxGeometry>
        </mxCell>
        <mxCell id="cc5oqjslnrZ3DRCShtl0-77" value="" style="endArrow=none;html=1;rounded=0;exitX=0.311;exitY=0.958;exitDx=0;exitDy=0;entryX=1;entryY=0;entryDx=0;entryDy=0;strokeWidth=2;exitPerimeter=0;" parent="1" source="cc5oqjslnrZ3DRCShtl0-67" target="cc5oqjslnrZ3DRCShtl0-53" edge="1">
          <mxGeometry relative="1" as="geometry">
            <mxPoint x="330" y="670" as="sourcePoint" />
            <mxPoint x="360" y="640" as="targetPoint" />
          </mxGeometry>
        </mxCell>
        <mxCell id="cc5oqjslnrZ3DRCShtl0-78" value="&lt;b&gt;&lt;font style=&quot;font-size: 15px;&quot;&gt;Especialidad&lt;/font&gt;&lt;/b&gt;" style="ellipse;shape=doubleEllipse;margin=3;whiteSpace=wrap;html=1;align=center;shadow=0;strokeColor=default;strokeWidth=2;fontFamily=Helvetica;fontSize=12;fontColor=default;fillColor=default;" parent="1" vertex="1">
          <mxGeometry x="-370" y="550" width="110" height="40" as="geometry" />
        </mxCell>
        <mxCell id="cc5oqjslnrZ3DRCShtl0-81" value="&lt;font style=&quot;font-size: 16px;&quot;&gt;&lt;span&gt;Bioma&lt;/span&gt;&lt;/font&gt;" style="whiteSpace=wrap;html=1;align=center;strokeWidth=2;fontStyle=1" parent="1" vertex="1">
          <mxGeometry x="275" y="1063" width="100" height="40" as="geometry" />
        </mxCell>
        <mxCell id="cc5oqjslnrZ3DRCShtl0-82" value="&lt;u&gt;&lt;font style=&quot;font-size: 16px;&quot;&gt;&lt;b&gt;Tipo&lt;/b&gt;&lt;/font&gt;&lt;/u&gt;" style="ellipse;whiteSpace=wrap;html=1;align=center;shadow=0;strokeColor=default;strokeWidth=2;fontFamily=Helvetica;fontSize=12;fontColor=default;fillColor=default;" parent="1" vertex="1">
          <mxGeometry x="470" y="1180" width="100" height="40" as="geometry" />
        </mxCell>
        <mxCell id="cc5oqjslnrZ3DRCShtl0-83" value="&lt;font style=&quot;font-size: 16px;&quot;&gt;&lt;b&gt;Num_Jaulas&lt;/b&gt;&lt;/font&gt;" style="ellipse;whiteSpace=wrap;html=1;align=center;shadow=0;strokeColor=default;strokeWidth=1;fontFamily=Helvetica;fontSize=12;fontColor=default;fillColor=default;dashed=1;" parent="1" vertex="1">
          <mxGeometry x="17.5" y="1180" width="110" height="40" as="geometry" />
        </mxCell>
        <mxCell id="cc5oqjslnrZ3DRCShtl0-84" value="&lt;font style=&quot;font-size: 16px;&quot;&gt;&lt;b&gt;Num_Cuid&lt;/b&gt;&lt;/font&gt;" style="ellipse;whiteSpace=wrap;html=1;align=center;shadow=0;strokeColor=default;strokeWidth=1;fontFamily=Helvetica;fontSize=12;fontColor=default;fillColor=default;dashed=1;" parent="1" vertex="1">
          <mxGeometry x="110" y="1227" width="110" height="40" as="geometry" />
        </mxCell>
        <mxCell id="cc5oqjslnrZ3DRCShtl0-85" value="&lt;font style=&quot;font-size: 16px;&quot;&gt;&lt;b&gt;Num_Vet&lt;br&gt;&lt;/b&gt;&lt;/font&gt;" style="ellipse;whiteSpace=wrap;html=1;align=center;shadow=0;strokeColor=default;strokeWidth=1;fontFamily=Helvetica;fontSize=12;fontColor=default;fillColor=default;dashed=1;" parent="1" vertex="1">
          <mxGeometry x="217.5" y="1190" width="110" height="40" as="geometry" />
        </mxCell>
        <mxCell id="cc5oqjslnrZ3DRCShtl0-86" value="&lt;font style=&quot;font-size: 16px;&quot;&gt;&lt;b&gt;Num_Anim&lt;br&gt;&lt;/b&gt;&lt;/font&gt;" style="ellipse;whiteSpace=wrap;html=1;align=center;shadow=0;strokeColor=default;strokeWidth=1;fontFamily=Helvetica;fontSize=12;fontColor=default;fillColor=default;dashed=1;" parent="1" vertex="1">
          <mxGeometry x="345.9" y="1210" width="110" height="40" as="geometry" />
        </mxCell>
        <mxCell id="-d3J0LfeknoKQkhsuHQo-3" value="" style="endArrow=none;html=1;rounded=0;exitX=1;exitY=0.5;exitDx=0;exitDy=0;entryX=0;entryY=0.5;entryDx=0;entryDy=0;" parent="1" source="cc5oqjslnrZ3DRCShtl0-61" target="-d3J0LfeknoKQkhsuHQo-84" edge="1">
          <mxGeometry width="50" height="50" relative="1" as="geometry">
            <mxPoint x="170" y="610" as="sourcePoint" />
            <mxPoint x="430" y="520" as="targetPoint" />
          </mxGeometry>
        </mxCell>
        <mxCell id="-d3J0LfeknoKQkhsuHQo-4" value="" style="endArrow=none;html=1;rounded=0;exitX=1;exitY=0.5;exitDx=0;exitDy=0;entryX=0;entryY=0.5;entryDx=0;entryDy=0;" parent="1" source="cc5oqjslnrZ3DRCShtl0-52" target="cc5oqjslnrZ3DRCShtl0-62" edge="1">
          <mxGeometry width="50" height="50" relative="1" as="geometry">
            <mxPoint x="380" y="570" as="sourcePoint" />
            <mxPoint x="430" y="520" as="targetPoint" />
          </mxGeometry>
        </mxCell>
        <mxCell id="-d3J0LfeknoKQkhsuHQo-5" value="" style="endArrow=none;html=1;rounded=0;entryX=0;entryY=0.75;entryDx=0;entryDy=0;" parent="1" source="cc5oqjslnrZ3DRCShtl0-63" target="cc5oqjslnrZ3DRCShtl0-52" edge="1">
          <mxGeometry width="50" height="50" relative="1" as="geometry">
            <mxPoint x="380" y="570" as="sourcePoint" />
            <mxPoint x="430" y="520" as="targetPoint" />
          </mxGeometry>
        </mxCell>
        <mxCell id="-d3J0LfeknoKQkhsuHQo-9" style="edgeStyle=orthogonalEdgeStyle;rounded=0;orthogonalLoop=1;jettySize=auto;html=1;exitX=0.5;exitY=1;exitDx=0;exitDy=0;entryX=0.5;entryY=0;entryDx=0;entryDy=0;shape=link;" parent="1" source="-d3J0LfeknoKQkhsuHQo-6" target="-d3J0LfeknoKQkhsuHQo-8" edge="1">
          <mxGeometry relative="1" as="geometry" />
        </mxCell>
        <mxCell id="-d3J0LfeknoKQkhsuHQo-6" value="&lt;font style=&quot;font-size: 16px;&quot;&gt;&lt;span&gt;Insumo&lt;/span&gt;&lt;/font&gt;" style="whiteSpace=wrap;html=1;align=center;strokeWidth=2;fontStyle=1" parent="1" vertex="1">
          <mxGeometry x="1040" y="770" width="100" height="40" as="geometry" />
        </mxCell>
        <mxCell id="-d3J0LfeknoKQkhsuHQo-7" value="" style="triangle;whiteSpace=wrap;html=1;shadow=0;strokeColor=default;strokeWidth=2;fontFamily=Helvetica;fontSize=12;fontColor=default;fillColor=default;rotation=90;" parent="1" vertex="1">
          <mxGeometry x="1060" y="880" width="60" height="80" as="geometry" />
        </mxCell>
        <mxCell id="-d3J0LfeknoKQkhsuHQo-8" value="&lt;font style=&quot;font-size: 16px;&quot;&gt;&lt;b&gt;d&lt;/b&gt;&lt;/font&gt;" style="text;html=1;strokeColor=none;fillColor=none;align=center;verticalAlign=middle;whiteSpace=wrap;rounded=0;fontSize=12;fontFamily=Helvetica;fontColor=default;" parent="1" vertex="1">
          <mxGeometry x="1060" y="900" width="60" height="30" as="geometry" />
        </mxCell>
        <mxCell id="-d3J0LfeknoKQkhsuHQo-10" value="&lt;span style=&quot;font-size: 16px;&quot;&gt;Alimento&lt;/span&gt;" style="whiteSpace=wrap;html=1;align=center;strokeWidth=2;fontStyle=1" parent="1" vertex="1">
          <mxGeometry x="860" y="1010" width="100" height="40" as="geometry" />
        </mxCell>
        <mxCell id="-d3J0LfeknoKQkhsuHQo-11" value="&lt;span style=&quot;font-size: 16px;&quot;&gt;Medicina&lt;/span&gt;" style="whiteSpace=wrap;html=1;align=center;strokeWidth=2;fontStyle=1" parent="1" vertex="1">
          <mxGeometry x="1220" y="1010" width="100" height="40" as="geometry" />
        </mxCell>
        <mxCell id="-d3J0LfeknoKQkhsuHQo-12" value="" style="endArrow=none;html=1;rounded=0;entryX=0.25;entryY=1;entryDx=0;entryDy=0;exitX=0.5;exitY=0;exitDx=0;exitDy=0;" parent="1" source="-d3J0LfeknoKQkhsuHQo-10" target="-d3J0LfeknoKQkhsuHQo-8" edge="1">
          <mxGeometry width="50" height="50" relative="1" as="geometry">
            <mxPoint x="980" y="1030" as="sourcePoint" />
            <mxPoint x="1030" y="980" as="targetPoint" />
          </mxGeometry>
        </mxCell>
        <mxCell id="-d3J0LfeknoKQkhsuHQo-13" value="" style="endArrow=none;html=1;rounded=0;exitX=0.75;exitY=1;exitDx=0;exitDy=0;entryX=0.5;entryY=0;entryDx=0;entryDy=0;" parent="1" source="-d3J0LfeknoKQkhsuHQo-8" target="-d3J0LfeknoKQkhsuHQo-11" edge="1">
          <mxGeometry width="50" height="50" relative="1" as="geometry">
            <mxPoint x="920" y="1020" as="sourcePoint" />
            <mxPoint x="1085" y="940" as="targetPoint" />
          </mxGeometry>
        </mxCell>
        <mxCell id="-d3J0LfeknoKQkhsuHQo-14" value="&lt;span style=&quot;font-size: 16px;&quot;&gt;&lt;b&gt;seRefrigera&lt;/b&gt;&lt;/span&gt;" style="ellipse;whiteSpace=wrap;html=1;align=center;strokeWidth=2;" parent="1" vertex="1">
          <mxGeometry x="870" y="770" width="120" height="40" as="geometry" />
        </mxCell>
        <mxCell id="TdeLC3_kOeJKwItWiQyu-47" style="rounded=0;orthogonalLoop=1;jettySize=auto;html=1;exitX=1;exitY=1;exitDx=0;exitDy=0;entryX=0;entryY=0;entryDx=0;entryDy=0;endArrow=none;endFill=0;" parent="1" source="-d3J0LfeknoKQkhsuHQo-16" target="-d3J0LfeknoKQkhsuHQo-6" edge="1">
          <mxGeometry relative="1" as="geometry" />
        </mxCell>
        <mxCell id="-d3J0LfeknoKQkhsuHQo-16" value="&lt;span style=&quot;font-size: 16px;&quot;&gt;&lt;b&gt;Cantidad&lt;/b&gt;&lt;/span&gt;" style="ellipse;whiteSpace=wrap;html=1;align=center;strokeWidth=2;" parent="1" vertex="1">
          <mxGeometry x="890" y="680" width="120" height="40" as="geometry" />
        </mxCell>
        <mxCell id="-d3J0LfeknoKQkhsuHQo-18" value="&lt;span style=&quot;font-size: 16px;&quot;&gt;&lt;b&gt;fechaCad&lt;/b&gt;&lt;/span&gt;" style="ellipse;whiteSpace=wrap;html=1;align=center;strokeWidth=2;" parent="1" vertex="1">
          <mxGeometry x="1150" y="830" width="120" height="40" as="geometry" />
        </mxCell>
        <mxCell id="TdeLC3_kOeJKwItWiQyu-24" style="rounded=0;orthogonalLoop=1;jettySize=auto;html=1;exitX=1;exitY=0.5;exitDx=0;exitDy=0;entryX=0;entryY=0.5;entryDx=0;entryDy=0;endArrow=none;endFill=0;" parent="1" source="-d3J0LfeknoKQkhsuHQo-19" target="-d3J0LfeknoKQkhsuHQo-10" edge="1">
          <mxGeometry relative="1" as="geometry" />
        </mxCell>
        <mxCell id="-d3J0LfeknoKQkhsuHQo-19" value="&lt;span style=&quot;font-size: 16px;&quot;&gt;&lt;b&gt;tipoAlimento&lt;/b&gt;&lt;/span&gt;" style="ellipse;whiteSpace=wrap;html=1;align=center;strokeWidth=2;" parent="1" vertex="1">
          <mxGeometry x="660" y="1010" width="120" height="40" as="geometry" />
        </mxCell>
        <mxCell id="-d3J0LfeknoKQkhsuHQo-21" value="&lt;span style=&quot;font-size: 16px;&quot;&gt;&lt;b&gt;labProcedencia&lt;/b&gt;&lt;/span&gt;" style="ellipse;whiteSpace=wrap;html=1;align=center;strokeWidth=2;" parent="1" vertex="1">
          <mxGeometry x="1030" y="1010" width="150" height="40" as="geometry" />
        </mxCell>
        <mxCell id="-d3J0LfeknoKQkhsuHQo-25" value="" style="endArrow=none;html=1;rounded=0;exitX=1;exitY=0.5;exitDx=0;exitDy=0;entryX=0;entryY=0.5;entryDx=0;entryDy=0;" parent="1" source="-d3J0LfeknoKQkhsuHQo-14" target="-d3J0LfeknoKQkhsuHQo-6" edge="1">
          <mxGeometry width="50" height="50" relative="1" as="geometry">
            <mxPoint x="917" y="762" as="sourcePoint" />
            <mxPoint x="1050" y="790" as="targetPoint" />
          </mxGeometry>
        </mxCell>
        <mxCell id="-d3J0LfeknoKQkhsuHQo-27" value="" style="endArrow=none;html=1;rounded=0;exitX=0;exitY=0.5;exitDx=0;exitDy=0;entryX=1;entryY=0.5;entryDx=0;entryDy=0;" parent="1" source="-d3J0LfeknoKQkhsuHQo-18" target="-d3J0LfeknoKQkhsuHQo-6" edge="1">
          <mxGeometry width="50" height="50" relative="1" as="geometry">
            <mxPoint x="1216" y="711" as="sourcePoint" />
            <mxPoint x="1150" y="780" as="targetPoint" />
          </mxGeometry>
        </mxCell>
        <mxCell id="-d3J0LfeknoKQkhsuHQo-28" value="" style="endArrow=none;html=1;rounded=0;exitX=1;exitY=0.5;exitDx=0;exitDy=0;entryX=0;entryY=0.5;entryDx=0;entryDy=0;" parent="1" source="-d3J0LfeknoKQkhsuHQo-21" target="-d3J0LfeknoKQkhsuHQo-11" edge="1">
          <mxGeometry width="50" height="50" relative="1" as="geometry">
            <mxPoint x="1360" y="950" as="sourcePoint" />
            <mxPoint x="1260" y="980" as="targetPoint" />
          </mxGeometry>
        </mxCell>
        <mxCell id="-d3J0LfeknoKQkhsuHQo-31" value="&lt;font style=&quot;font-size: 16px;&quot;&gt;&lt;span&gt;Cliente&lt;/span&gt;&lt;/font&gt;" style="whiteSpace=wrap;html=1;align=center;strokeWidth=2;fontStyle=1" parent="1" vertex="1">
          <mxGeometry x="1355" y="350" width="100" height="40" as="geometry" />
        </mxCell>
        <mxCell id="-d3J0LfeknoKQkhsuHQo-33" value="" style="endArrow=none;html=1;rounded=0;exitX=0.75;exitY=1;exitDx=0;exitDy=0;entryX=0.5;entryY=0;entryDx=0;entryDy=0;" parent="1" source="cc5oqjslnrZ3DRCShtl0-81" target="cc5oqjslnrZ3DRCShtl0-86" edge="1">
          <mxGeometry width="50" height="50" relative="1" as="geometry">
            <mxPoint x="416" y="1117" as="sourcePoint" />
            <mxPoint x="679" y="1102" as="targetPoint" />
          </mxGeometry>
        </mxCell>
        <mxCell id="-d3J0LfeknoKQkhsuHQo-34" value="" style="endArrow=none;html=1;rounded=0;exitX=0.5;exitY=1;exitDx=0;exitDy=0;entryX=0.5;entryY=0;entryDx=0;entryDy=0;" parent="1" source="cc5oqjslnrZ3DRCShtl0-81" target="cc5oqjslnrZ3DRCShtl0-85" edge="1">
          <mxGeometry width="50" height="50" relative="1" as="geometry">
            <mxPoint x="391" y="1117" as="sourcePoint" />
            <mxPoint x="671" y="1057" as="targetPoint" />
          </mxGeometry>
        </mxCell>
        <mxCell id="-d3J0LfeknoKQkhsuHQo-35" value="" style="endArrow=none;html=1;rounded=0;exitX=0.18;exitY=1.075;exitDx=0;exitDy=0;entryX=0.564;entryY=0;entryDx=0;entryDy=0;exitPerimeter=0;entryPerimeter=0;" parent="1" source="cc5oqjslnrZ3DRCShtl0-81" target="cc5oqjslnrZ3DRCShtl0-84" edge="1">
          <mxGeometry width="50" height="50" relative="1" as="geometry">
            <mxPoint x="377" y="1113" as="sourcePoint" />
            <mxPoint x="677" y="1011" as="targetPoint" />
          </mxGeometry>
        </mxCell>
        <mxCell id="-d3J0LfeknoKQkhsuHQo-36" value="" style="endArrow=none;html=1;rounded=0;exitX=0;exitY=1;exitDx=0;exitDy=0;entryX=0.964;entryY=0.275;entryDx=0;entryDy=0;entryPerimeter=0;" parent="1" source="cc5oqjslnrZ3DRCShtl0-81" target="cc5oqjslnrZ3DRCShtl0-83" edge="1">
          <mxGeometry width="50" height="50" relative="1" as="geometry">
            <mxPoint x="357" y="1114" as="sourcePoint" />
            <mxPoint x="105" y="1177" as="targetPoint" />
          </mxGeometry>
        </mxCell>
        <mxCell id="-d3J0LfeknoKQkhsuHQo-37" value="" style="endArrow=none;html=1;rounded=0;exitX=1;exitY=0.5;exitDx=0;exitDy=0;entryX=0.07;entryY=0.3;entryDx=0;entryDy=0;entryPerimeter=0;" parent="1" source="cc5oqjslnrZ3DRCShtl0-81" target="cc5oqjslnrZ3DRCShtl0-82" edge="1">
          <mxGeometry width="50" height="50" relative="1" as="geometry">
            <mxPoint x="350" y="1120" as="sourcePoint" />
            <mxPoint x="548" y="979" as="targetPoint" />
          </mxGeometry>
        </mxCell>
        <mxCell id="-d3J0LfeknoKQkhsuHQo-52" value="&lt;font style=&quot;font-size: 16px;&quot;&gt;&lt;span&gt;Animal&lt;/span&gt;&lt;/font&gt;" style="whiteSpace=wrap;html=1;align=center;strokeWidth=2;fontStyle=1" parent="1" vertex="1">
          <mxGeometry x="-495.20000000000005" y="1020" width="100" height="40" as="geometry" />
        </mxCell>
        <mxCell id="-d3J0LfeknoKQkhsuHQo-53" value="&lt;font style=&quot;font-size: 16px;&quot;&gt;&lt;span&gt;Evento&lt;/span&gt;&lt;/font&gt;" style="whiteSpace=wrap;html=1;align=center;strokeWidth=2;fontStyle=1" parent="1" vertex="1">
          <mxGeometry x="2097.25" y="205" width="100" height="40" as="geometry" />
        </mxCell>
        <mxCell id="-d3J0LfeknoKQkhsuHQo-54" value="&lt;font size=&quot;1&quot;&gt;&lt;b style=&quot;font-size: 16px;&quot;&gt;Num_Jaula&lt;/b&gt;&lt;/font&gt;" style="ellipse;whiteSpace=wrap;html=1;align=center;shadow=0;strokeColor=default;strokeWidth=2;fontFamily=Helvetica;fontSize=12;fontColor=default;fillColor=default;" parent="1" vertex="1">
          <mxGeometry x="-680" y="1110" width="110" height="40" as="geometry" />
        </mxCell>
        <mxCell id="-d3J0LfeknoKQkhsuHQo-55" value="&lt;font style=&quot;font-size: 16px;&quot;&gt;&lt;b&gt;Nombre&lt;br&gt;&lt;/b&gt;&lt;/font&gt;" style="ellipse;whiteSpace=wrap;html=1;align=center;shadow=0;strokeColor=default;strokeWidth=2;fontFamily=Helvetica;fontSize=12;fontColor=default;fillColor=default;" parent="1" vertex="1">
          <mxGeometry x="-584.1" y="1140" width="110" height="40" as="geometry" />
        </mxCell>
        <mxCell id="-d3J0LfeknoKQkhsuHQo-56" value="&lt;font size=&quot;1&quot;&gt;&lt;b style=&quot;font-size: 16px;&quot;&gt;Especie&lt;/b&gt;&lt;/font&gt;" style="ellipse;whiteSpace=wrap;html=1;align=center;shadow=0;strokeColor=default;strokeWidth=2;fontFamily=Helvetica;fontSize=12;fontColor=default;fillColor=default;" parent="1" vertex="1">
          <mxGeometry x="-724.1" y="995" width="110" height="40" as="geometry" />
        </mxCell>
        <mxCell id="-d3J0LfeknoKQkhsuHQo-57" value="&lt;font style=&quot;font-size: 16px;&quot;&gt;&lt;b&gt;Peso&lt;br&gt;&lt;/b&gt;&lt;/font&gt;" style="ellipse;whiteSpace=wrap;html=1;align=center;shadow=0;strokeColor=default;strokeWidth=2;fontFamily=Helvetica;fontSize=12;fontColor=default;fillColor=default;" parent="1" vertex="1">
          <mxGeometry x="-274.1" y="1060" width="110" height="40" as="geometry" />
        </mxCell>
        <mxCell id="-d3J0LfeknoKQkhsuHQo-58" value="&lt;font style=&quot;font-size: 16px;&quot;&gt;&lt;b&gt;Altura&lt;br&gt;&lt;/b&gt;&lt;/font&gt;" style="ellipse;whiteSpace=wrap;html=1;align=center;shadow=0;strokeColor=default;strokeWidth=2;fontFamily=Helvetica;fontSize=12;fontColor=default;fillColor=default;" parent="1" vertex="1">
          <mxGeometry x="-318.20000000000005" y="1115" width="110" height="40" as="geometry" />
        </mxCell>
        <mxCell id="-d3J0LfeknoKQkhsuHQo-59" value="&lt;font style=&quot;font-size: 16px;&quot;&gt;&lt;b&gt;Sexo&lt;br&gt;&lt;/b&gt;&lt;/font&gt;" style="ellipse;whiteSpace=wrap;html=1;align=center;shadow=0;strokeColor=default;strokeWidth=2;fontFamily=Helvetica;fontSize=12;fontColor=default;fillColor=default;" parent="1" vertex="1">
          <mxGeometry x="-350.00000000000006" y="1170" width="110" height="40" as="geometry" />
        </mxCell>
        <mxCell id="-d3J0LfeknoKQkhsuHQo-61" value="&lt;font style=&quot;font-size: 16px;&quot;&gt;&lt;b&gt;Alimentacion&lt;br&gt;&lt;/b&gt;&lt;/font&gt;" style="ellipse;whiteSpace=wrap;html=1;align=center;shadow=0;strokeColor=default;strokeWidth=2;fontFamily=Helvetica;fontSize=12;fontColor=default;fillColor=default;" parent="1" vertex="1">
          <mxGeometry x="-460" y="1140" width="110" height="40" as="geometry" />
        </mxCell>
        <mxCell id="-d3J0LfeknoKQkhsuHQo-63" value="" style="endArrow=none;html=1;rounded=0;entryX=1;entryY=0.5;entryDx=0;entryDy=0;exitX=0;exitY=0.75;exitDx=0;exitDy=0;" parent="1" source="-d3J0LfeknoKQkhsuHQo-52" target="Y-_55_ya9VjyHDabUnFr-1" edge="1">
          <mxGeometry width="50" height="50" relative="1" as="geometry">
            <mxPoint x="-243.2" y="980" as="sourcePoint" />
            <mxPoint x="-614.0999999999999" y="1056" as="targetPoint" />
          </mxGeometry>
        </mxCell>
        <mxCell id="-d3J0LfeknoKQkhsuHQo-67" value="" style="endArrow=none;html=1;rounded=0;entryX=0.5;entryY=0;entryDx=0;entryDy=0;exitX=0.25;exitY=1;exitDx=0;exitDy=0;" parent="1" source="-d3J0LfeknoKQkhsuHQo-52" target="-d3J0LfeknoKQkhsuHQo-54" edge="1">
          <mxGeometry width="50" height="50" relative="1" as="geometry">
            <mxPoint x="-442.20000000000005" y="1028" as="sourcePoint" />
            <mxPoint x="-468.20000000000005" y="1000" as="targetPoint" />
          </mxGeometry>
        </mxCell>
        <mxCell id="-d3J0LfeknoKQkhsuHQo-68" value="" style="endArrow=none;html=1;rounded=0;entryX=0.5;entryY=0;entryDx=0;entryDy=0;exitX=0.5;exitY=1;exitDx=0;exitDy=0;" parent="1" source="-d3J0LfeknoKQkhsuHQo-52" target="-d3J0LfeknoKQkhsuHQo-55" edge="1">
          <mxGeometry width="50" height="50" relative="1" as="geometry">
            <mxPoint x="-410.20000000000005" y="1030" as="sourcePoint" />
            <mxPoint x="-347.20000000000005" y="969" as="targetPoint" />
          </mxGeometry>
        </mxCell>
        <mxCell id="-d3J0LfeknoKQkhsuHQo-69" value="" style="endArrow=none;html=1;rounded=0;entryX=1;entryY=0.5;entryDx=0;entryDy=0;exitX=0;exitY=0.25;exitDx=0;exitDy=0;" parent="1" source="-d3J0LfeknoKQkhsuHQo-52" target="-d3J0LfeknoKQkhsuHQo-56" edge="1">
          <mxGeometry width="50" height="50" relative="1" as="geometry">
            <mxPoint x="-385.20000000000005" y="1030" as="sourcePoint" />
            <mxPoint x="-263.2" y="980" as="targetPoint" />
          </mxGeometry>
        </mxCell>
        <mxCell id="-d3J0LfeknoKQkhsuHQo-70" value="" style="endArrow=none;html=1;rounded=0;entryX=0.073;entryY=0.167;entryDx=0;entryDy=0;entryPerimeter=0;exitX=1;exitY=0.75;exitDx=0;exitDy=0;" parent="1" source="-d3J0LfeknoKQkhsuHQo-52" target="-d3J0LfeknoKQkhsuHQo-57" edge="1">
          <mxGeometry width="50" height="50" relative="1" as="geometry">
            <mxPoint x="-354.1" y="1060" as="sourcePoint" />
            <mxPoint x="-233.2" y="1025" as="targetPoint" />
          </mxGeometry>
        </mxCell>
        <mxCell id="-d3J0LfeknoKQkhsuHQo-71" value="" style="endArrow=none;html=1;rounded=0;entryX=0.182;entryY=0;entryDx=0;entryDy=0;entryPerimeter=0;exitX=1;exitY=1;exitDx=0;exitDy=0;" parent="1" source="-d3J0LfeknoKQkhsuHQo-52" target="-d3J0LfeknoKQkhsuHQo-58" edge="1">
          <mxGeometry width="50" height="50" relative="1" as="geometry">
            <mxPoint x="-393.20000000000005" y="1050" as="sourcePoint" />
            <mxPoint x="-235.2" y="1067" as="targetPoint" />
          </mxGeometry>
        </mxCell>
        <mxCell id="-d3J0LfeknoKQkhsuHQo-72" value="" style="endArrow=none;html=1;rounded=0;entryX=0.358;entryY=0.067;entryDx=0;entryDy=0;entryPerimeter=0;exitX=0.887;exitY=1.083;exitDx=0;exitDy=0;exitPerimeter=0;" parent="1" source="-d3J0LfeknoKQkhsuHQo-52" target="-d3J0LfeknoKQkhsuHQo-59" edge="1">
          <mxGeometry width="50" height="50" relative="1" as="geometry">
            <mxPoint x="-383.20000000000005" y="1060" as="sourcePoint" />
            <mxPoint x="-273.20000000000005" y="1110" as="targetPoint" />
          </mxGeometry>
        </mxCell>
        <mxCell id="-d3J0LfeknoKQkhsuHQo-73" value="" style="endArrow=none;html=1;rounded=0;entryX=0.5;entryY=0;entryDx=0;entryDy=0;exitX=0.593;exitY=0.983;exitDx=0;exitDy=0;exitPerimeter=0;" parent="1" source="-d3J0LfeknoKQkhsuHQo-52" target="-d3J0LfeknoKQkhsuHQo-61" edge="1">
          <mxGeometry width="50" height="50" relative="1" as="geometry">
            <mxPoint x="-396.20000000000005" y="1073" as="sourcePoint" />
            <mxPoint x="-294.20000000000005" y="1163" as="targetPoint" />
          </mxGeometry>
        </mxCell>
        <mxCell id="-d3J0LfeknoKQkhsuHQo-74" value="&lt;font style=&quot;font-size: 16px;&quot;&gt;&lt;b&gt;Fecha&lt;br&gt;&lt;/b&gt;&lt;/font&gt;" style="ellipse;whiteSpace=wrap;html=1;align=center;shadow=0;strokeColor=default;strokeWidth=2;fontFamily=Helvetica;fontSize=12;fontColor=default;fillColor=default;" parent="1" vertex="1">
          <mxGeometry x="1907.75" y="110" width="110" height="40" as="geometry" />
        </mxCell>
        <mxCell id="-d3J0LfeknoKQkhsuHQo-75" value="&lt;font style=&quot;font-size: 16px;&quot;&gt;&lt;b&gt;tipoEvento&lt;br&gt;&lt;/b&gt;&lt;/font&gt;" style="ellipse;whiteSpace=wrap;html=1;align=center;shadow=0;strokeColor=default;strokeWidth=2;fontFamily=Helvetica;fontSize=12;fontColor=default;fillColor=default;" parent="1" vertex="1">
          <mxGeometry x="2017.75" y="70" width="110" height="40" as="geometry" />
        </mxCell>
        <mxCell id="-d3J0LfeknoKQkhsuHQo-76" value="&lt;font style=&quot;font-size: 16px;&quot;&gt;&lt;b&gt;Capacidad&lt;br&gt;&lt;/b&gt;&lt;/font&gt;" style="ellipse;whiteSpace=wrap;html=1;align=center;shadow=0;strokeColor=default;strokeWidth=2;fontFamily=Helvetica;fontSize=12;fontColor=default;fillColor=default;" parent="1" vertex="1">
          <mxGeometry x="2147.75" y="70" width="110" height="40" as="geometry" />
        </mxCell>
        <mxCell id="-d3J0LfeknoKQkhsuHQo-78" value="" style="endArrow=none;html=1;rounded=0;exitX=1;exitY=0.5;exitDx=0;exitDy=0;entryX=0;entryY=0;entryDx=0;entryDy=0;" parent="1" source="-d3J0LfeknoKQkhsuHQo-74" target="-d3J0LfeknoKQkhsuHQo-53" edge="1">
          <mxGeometry width="50" height="50" relative="1" as="geometry">
            <mxPoint x="2247.75" y="90" as="sourcePoint" />
            <mxPoint x="2297.75" y="40" as="targetPoint" />
          </mxGeometry>
        </mxCell>
        <mxCell id="-d3J0LfeknoKQkhsuHQo-81" value="" style="endArrow=none;html=1;rounded=0;" parent="1" source="-d3J0LfeknoKQkhsuHQo-76" target="-d3J0LfeknoKQkhsuHQo-53" edge="1">
          <mxGeometry width="50" height="50" relative="1" as="geometry">
            <mxPoint x="2078.75" y="261" as="sourcePoint" />
            <mxPoint x="2097.75" y="220" as="targetPoint" />
          </mxGeometry>
        </mxCell>
        <mxCell id="TdeLC3_kOeJKwItWiQyu-32" style="edgeStyle=orthogonalEdgeStyle;rounded=0;orthogonalLoop=1;jettySize=auto;html=1;exitX=0.5;exitY=0;exitDx=0;exitDy=0;entryX=0.75;entryY=1;entryDx=0;entryDy=0;endArrow=none;endFill=0;" parent="1" source="-d3J0LfeknoKQkhsuHQo-83" target="cc5oqjslnrZ3DRCShtl0-51" edge="1">
          <mxGeometry relative="1" as="geometry" />
        </mxCell>
        <mxCell id="TdeLC3_kOeJKwItWiQyu-36" style="edgeStyle=orthogonalEdgeStyle;rounded=0;orthogonalLoop=1;jettySize=auto;html=1;exitX=1;exitY=0.5;exitDx=0;exitDy=0;entryX=0;entryY=0;entryDx=0;entryDy=0;endArrow=none;endFill=0;" parent="1" source="-d3J0LfeknoKQkhsuHQo-83" target="cc5oqjslnrZ3DRCShtl0-81" edge="1">
          <mxGeometry relative="1" as="geometry">
            <Array as="points">
              <mxPoint x="-70" y="960" />
              <mxPoint x="275" y="960" />
            </Array>
          </mxGeometry>
        </mxCell>
        <mxCell id="-d3J0LfeknoKQkhsuHQo-83" value="&lt;span style=&quot;font-size: 18px;&quot;&gt;&lt;b&gt;Trabajar&lt;/b&gt;&lt;/span&gt;" style="rhombus;whiteSpace=wrap;html=1;" parent="1" vertex="1">
          <mxGeometry x="-220" y="790" width="150" height="50" as="geometry" />
        </mxCell>
        <mxCell id="TdeLC3_kOeJKwItWiQyu-39" style="edgeStyle=orthogonalEdgeStyle;rounded=0;orthogonalLoop=1;jettySize=auto;html=1;exitX=0.5;exitY=0;exitDx=0;exitDy=0;entryX=0.25;entryY=1;entryDx=0;entryDy=0;endArrow=classic;endFill=1;shape=flexArrow;" parent="1" source="-d3J0LfeknoKQkhsuHQo-84" target="cc5oqjslnrZ3DRCShtl0-52" edge="1">
          <mxGeometry relative="1" as="geometry" />
        </mxCell>
        <mxCell id="TdeLC3_kOeJKwItWiQyu-43" style="edgeStyle=orthogonalEdgeStyle;rounded=0;orthogonalLoop=1;jettySize=auto;html=1;exitX=0.5;exitY=1;exitDx=0;exitDy=0;entryX=0.75;entryY=0;entryDx=0;entryDy=0;endArrow=classic;endFill=1;" parent="1" source="-d3J0LfeknoKQkhsuHQo-84" target="-d3J0LfeknoKQkhsuHQo-52" edge="1">
          <mxGeometry relative="1" as="geometry" />
        </mxCell>
        <mxCell id="-d3J0LfeknoKQkhsuHQo-84" value="&lt;font size=&quot;1&quot;&gt;&lt;b style=&quot;font-size: 18px;&quot;&gt;Cuidar&lt;/b&gt;&lt;/font&gt;" style="rhombus;whiteSpace=wrap;html=1;" parent="1" vertex="1">
          <mxGeometry x="15.900000000000006" y="750" width="150" height="50" as="geometry" />
        </mxCell>
        <mxCell id="TdeLC3_kOeJKwItWiQyu-37" style="edgeStyle=orthogonalEdgeStyle;rounded=0;orthogonalLoop=1;jettySize=auto;html=1;exitX=1;exitY=0.5;exitDx=0;exitDy=0;entryX=0;entryY=0.5;entryDx=0;entryDy=0;shape=flexArrow;" parent="1" source="huwh_n98xhKvYkgfeiNL-1" target="cc5oqjslnrZ3DRCShtl0-81" edge="1">
          <mxGeometry relative="1" as="geometry" />
        </mxCell>
        <mxCell id="TdeLC3_kOeJKwItWiQyu-48" style="edgeStyle=orthogonalEdgeStyle;rounded=0;orthogonalLoop=1;jettySize=auto;html=1;entryX=1;entryY=0.25;entryDx=0;entryDy=0;shape=link;exitX=0;exitY=0.5;exitDx=0;exitDy=0;" parent="1" source="huwh_n98xhKvYkgfeiNL-1" target="-d3J0LfeknoKQkhsuHQo-52" edge="1">
          <mxGeometry relative="1" as="geometry">
            <Array as="points">
              <mxPoint x="-100" y="1030" />
            </Array>
            <mxPoint x="-140" y="1070" as="sourcePoint" />
          </mxGeometry>
        </mxCell>
        <mxCell id="huwh_n98xhKvYkgfeiNL-1" value="&lt;span style=&quot;font-size: 18px;&quot;&gt;&lt;b&gt;Pertenecer&lt;/b&gt;&lt;/span&gt;" style="rhombus;whiteSpace=wrap;html=1;" parent="1" vertex="1">
          <mxGeometry x="-100" y="1058" width="150" height="50" as="geometry" />
        </mxCell>
        <mxCell id="TdeLC3_kOeJKwItWiQyu-40" style="edgeStyle=orthogonalEdgeStyle;rounded=0;orthogonalLoop=1;jettySize=auto;html=1;exitX=0.5;exitY=0;exitDx=0;exitDy=0;entryX=0.75;entryY=1;entryDx=0;entryDy=0;endArrow=none;endFill=0;" parent="1" source="huwh_n98xhKvYkgfeiNL-4" target="cc5oqjslnrZ3DRCShtl0-52" edge="1">
          <mxGeometry relative="1" as="geometry" />
        </mxCell>
        <mxCell id="huwh_n98xhKvYkgfeiNL-4" value="&lt;font size=&quot;1&quot;&gt;&lt;b style=&quot;font-size: 18px;&quot;&gt;Laborar&lt;/b&gt;&lt;/font&gt;" style="rhombus;whiteSpace=wrap;html=1;" parent="1" vertex="1">
          <mxGeometry x="205.9" y="750" width="150" height="50" as="geometry" />
        </mxCell>
        <mxCell id="TdeLC3_kOeJKwItWiQyu-44" style="edgeStyle=orthogonalEdgeStyle;rounded=0;orthogonalLoop=1;jettySize=auto;html=1;exitX=0;exitY=0.5;exitDx=0;exitDy=0;entryX=1;entryY=0.25;entryDx=0;entryDy=0;endArrow=none;endFill=0;" parent="1" source="huwh_n98xhKvYkgfeiNL-7" target="cc5oqjslnrZ3DRCShtl0-81" edge="1">
          <mxGeometry relative="1" as="geometry" />
        </mxCell>
        <mxCell id="huwh_n98xhKvYkgfeiNL-7" value="&lt;span style=&quot;font-size: 18px;&quot;&gt;&lt;b&gt;Distribuir&lt;/b&gt;&lt;/span&gt;" style="rhombus;whiteSpace=wrap;html=1;" parent="1" vertex="1">
          <mxGeometry x="575" y="870" width="150" height="50" as="geometry" />
        </mxCell>
        <mxCell id="huwh_n98xhKvYkgfeiNL-8" value="" style="endArrow=none;html=1;rounded=0;entryX=0;entryY=0.75;entryDx=0;entryDy=0;exitX=1;exitY=0.5;exitDx=0;exitDy=0;startArrow=none;startFill=0;endFill=0;edgeStyle=orthogonalEdgeStyle;" parent="1" source="huwh_n98xhKvYkgfeiNL-7" target="Q2EwYU6QEf5v0aBfxVkl-8" edge="1">
          <mxGeometry width="50" height="50" relative="1" as="geometry">
            <mxPoint x="1490" y="1250" as="sourcePoint" />
            <mxPoint x="1540" y="1200" as="targetPoint" />
            <Array as="points">
              <mxPoint x="830" y="895" />
              <mxPoint x="830" y="425" />
            </Array>
          </mxGeometry>
        </mxCell>
        <mxCell id="TdeLC3_kOeJKwItWiQyu-33" style="edgeStyle=orthogonalEdgeStyle;rounded=0;orthogonalLoop=1;jettySize=auto;html=1;exitX=0.5;exitY=0;exitDx=0;exitDy=0;entryX=0.25;entryY=1;entryDx=0;entryDy=0;shape=link;" parent="1" source="maE8RR4jbbAmRZyhBtNp-1" target="cc5oqjslnrZ3DRCShtl0-51" edge="1">
          <mxGeometry relative="1" as="geometry" />
        </mxCell>
        <mxCell id="TdeLC3_kOeJKwItWiQyu-35" style="edgeStyle=orthogonalEdgeStyle;rounded=0;orthogonalLoop=1;jettySize=auto;html=1;exitX=0.5;exitY=1;exitDx=0;exitDy=0;entryX=0.182;entryY=-0.025;entryDx=0;entryDy=0;entryPerimeter=0;endArrow=none;endFill=0;" parent="1" source="maE8RR4jbbAmRZyhBtNp-1" target="-d3J0LfeknoKQkhsuHQo-52" edge="1">
          <mxGeometry relative="1" as="geometry">
            <Array as="points">
              <mxPoint x="-314" y="860" />
              <mxPoint x="-477" y="860" />
            </Array>
          </mxGeometry>
        </mxCell>
        <mxCell id="maE8RR4jbbAmRZyhBtNp-1" value="&lt;span style=&quot;font-size: 18px;&quot;&gt;&lt;b&gt;Atender&lt;/b&gt;&lt;/span&gt;" style="rhombus;whiteSpace=wrap;html=1;" parent="1" vertex="1">
          <mxGeometry x="-389.1" y="760" width="150" height="50" as="geometry" />
        </mxCell>
        <mxCell id="maE8RR4jbbAmRZyhBtNp-8" value="" style="endArrow=none;html=1;rounded=0;exitX=0.5;exitY=1;exitDx=0;exitDy=0;entryX=0.25;entryY=0;entryDx=0;entryDy=0;" parent="1" source="-d3J0LfeknoKQkhsuHQo-75" target="-d3J0LfeknoKQkhsuHQo-53" edge="1">
          <mxGeometry width="50" height="50" relative="1" as="geometry">
            <mxPoint x="2198.75" y="119" as="sourcePoint" />
            <mxPoint x="2152.75" y="180" as="targetPoint" />
          </mxGeometry>
        </mxCell>
        <mxCell id="fioEPVJvo6Oif7lgc-Ir-40" value="&lt;b&gt;&lt;font style=&quot;font-size: 16px;&quot;&gt;nombreServicio&lt;/font&gt;&lt;/b&gt;" style="ellipse;whiteSpace=wrap;html=1;align=center;shadow=0;strokeColor=default;strokeWidth=1;fontFamily=Helvetica;fontSize=12;fontColor=default;fillColor=default;dashed=1;" parent="1" vertex="1">
          <mxGeometry x="630" y="265" width="150" height="40" as="geometry" />
        </mxCell>
        <mxCell id="fioEPVJvo6Oif7lgc-Ir-41" value="&lt;font style=&quot;font-size: 16px;&quot;&gt;&lt;b&gt;Fecha&lt;br&gt;&lt;/b&gt;&lt;/font&gt;" style="ellipse;whiteSpace=wrap;html=1;align=center;shadow=0;strokeColor=default;strokeWidth=2;fontFamily=Helvetica;fontSize=12;fontColor=default;fillColor=default;" parent="1" vertex="1">
          <mxGeometry x="1215" y="-120" width="110" height="40" as="geometry" />
        </mxCell>
        <mxCell id="fioEPVJvo6Oif7lgc-Ir-42" value="&lt;font style=&quot;font-size: 16px;&quot;&gt;&lt;b&gt;&lt;u&gt;NumTicket&lt;/u&gt;&lt;/b&gt;&lt;/font&gt;" style="ellipse;whiteSpace=wrap;html=1;align=center;strokeWidth=2;" parent="1" vertex="1">
          <mxGeometry x="970" y="-200" width="100" height="40" as="geometry" />
        </mxCell>
        <mxCell id="fioEPVJvo6Oif7lgc-Ir-43" style="rounded=0;orthogonalLoop=1;jettySize=auto;html=1;exitX=0.189;exitY=0.737;exitDx=0;exitDy=0;entryX=0.5;entryY=0;entryDx=0;entryDy=0;endArrow=none;endFill=0;exitPerimeter=0;" parent="1" source="Y-_55_ya9VjyHDabUnFr-51" target="fioEPVJvo6Oif7lgc-Ir-40" edge="1">
          <mxGeometry relative="1" as="geometry">
            <mxPoint x="1204.5" y="145" as="targetPoint" />
            <mxPoint x="1030" y="95" as="sourcePoint" />
          </mxGeometry>
        </mxCell>
        <mxCell id="fioEPVJvo6Oif7lgc-Ir-44" value="&lt;font style=&quot;font-size: 16px;&quot;&gt;&lt;b&gt;costoTotal&lt;br&gt;&lt;/b&gt;&lt;/font&gt;" style="ellipse;whiteSpace=wrap;html=1;align=center;shadow=0;strokeColor=default;strokeWidth=1;fontFamily=Helvetica;fontSize=12;fontColor=default;fillColor=default;dashed=1;" parent="1" vertex="1">
          <mxGeometry x="1090" y="-190" width="110" height="40" as="geometry" />
        </mxCell>
        <mxCell id="fioEPVJvo6Oif7lgc-Ir-45" value="&lt;font size=&quot;1&quot;&gt;&lt;b style=&quot;font-size: 16px;&quot;&gt;costoUnitario&lt;/b&gt;&lt;/font&gt;" style="ellipse;whiteSpace=wrap;html=1;align=center;dashed=1;" parent="1" vertex="1">
          <mxGeometry x="595.5" y="180" width="134.5" height="40" as="geometry" />
        </mxCell>
        <mxCell id="fioEPVJvo6Oif7lgc-Ir-46" style="edgeStyle=orthogonalEdgeStyle;rounded=0;orthogonalLoop=1;jettySize=auto;html=1;exitX=0.5;exitY=1;exitDx=0;exitDy=0;" parent="1" source="CCVpfl_Kz8rF-1x_p7pF-4" target="-d3J0LfeknoKQkhsuHQo-31" edge="1">
          <mxGeometry relative="1" as="geometry">
            <mxPoint x="1405" y="270" as="sourcePoint" />
            <mxPoint x="1380" y="320" as="targetPoint" />
          </mxGeometry>
        </mxCell>
        <mxCell id="fioEPVJvo6Oif7lgc-Ir-49" style="rounded=0;orthogonalLoop=1;jettySize=auto;html=1;entryX=0;entryY=0.5;entryDx=0;entryDy=0;endArrow=none;endFill=0;exitX=1;exitY=0.25;exitDx=0;exitDy=0;" parent="1" source="fioEPVJvo6Oif7lgc-Ir-68" target="fioEPVJvo6Oif7lgc-Ir-41" edge="1">
          <mxGeometry relative="1" as="geometry">
            <mxPoint x="1165" y="-110" as="targetPoint" />
            <mxPoint x="1070" y="-50" as="sourcePoint" />
          </mxGeometry>
        </mxCell>
        <mxCell id="fioEPVJvo6Oif7lgc-Ir-50" style="rounded=0;orthogonalLoop=1;jettySize=auto;html=1;entryX=0.364;entryY=1;entryDx=0;entryDy=0;endArrow=none;endFill=0;entryPerimeter=0;exitX=0.75;exitY=0;exitDx=0;exitDy=0;" parent="1" source="fioEPVJvo6Oif7lgc-Ir-68" target="fioEPVJvo6Oif7lgc-Ir-44" edge="1">
          <mxGeometry relative="1" as="geometry">
            <mxPoint x="1015" y="-170" as="targetPoint" />
            <mxPoint x="1064" y="-88" as="sourcePoint" />
          </mxGeometry>
        </mxCell>
        <mxCell id="fioEPVJvo6Oif7lgc-Ir-51" style="rounded=0;orthogonalLoop=1;jettySize=auto;html=1;entryX=0.5;entryY=1;entryDx=0;entryDy=0;endArrow=none;endFill=0;exitX=0;exitY=0.5;exitDx=0;exitDy=0;" parent="1" source="Y-_55_ya9VjyHDabUnFr-51" target="fioEPVJvo6Oif7lgc-Ir-45" edge="1">
          <mxGeometry relative="1" as="geometry">
            <mxPoint x="1065" y="145" as="targetPoint" />
            <mxPoint x="990.04" y="115" as="sourcePoint" />
          </mxGeometry>
        </mxCell>
        <mxCell id="TdeLC3_kOeJKwItWiQyu-41" style="edgeStyle=orthogonalEdgeStyle;rounded=0;orthogonalLoop=1;jettySize=auto;html=1;exitX=0.5;exitY=1;exitDx=0;exitDy=0;entryX=0.65;entryY=0.05;entryDx=0;entryDy=0;entryPerimeter=0;" parent="1" source="huwh_n98xhKvYkgfeiNL-4" target="cc5oqjslnrZ3DRCShtl0-81" edge="1">
          <mxGeometry relative="1" as="geometry">
            <Array as="points">
              <mxPoint x="281" y="890" />
              <mxPoint x="340" y="890" />
            </Array>
          </mxGeometry>
        </mxCell>
        <mxCell id="fioEPVJvo6Oif7lgc-Ir-66" value="&lt;font style=&quot;font-size: 16px;&quot;&gt;&lt;b&gt;&lt;u&gt;Id_Evento&lt;/u&gt;&lt;br&gt;&lt;/b&gt;&lt;/font&gt;" style="ellipse;whiteSpace=wrap;html=1;align=center;shadow=0;strokeColor=default;strokeWidth=2;fontFamily=Helvetica;fontSize=12;fontColor=default;fillColor=default;" parent="1" vertex="1">
          <mxGeometry x="2250" y="255" width="110" height="40" as="geometry" />
        </mxCell>
        <mxCell id="fioEPVJvo6Oif7lgc-Ir-67" value="" style="endArrow=none;html=1;rounded=0;exitX=0.75;exitY=1;exitDx=0;exitDy=0;entryX=0.309;entryY=0.025;entryDx=0;entryDy=0;entryPerimeter=0;" parent="1" source="-d3J0LfeknoKQkhsuHQo-53" target="fioEPVJvo6Oif7lgc-Ir-66" edge="1">
          <mxGeometry width="50" height="50" relative="1" as="geometry">
            <mxPoint x="2178.25" y="270" as="sourcePoint" />
            <mxPoint x="2227.25" y="365" as="targetPoint" />
          </mxGeometry>
        </mxCell>
        <mxCell id="fioEPVJvo6Oif7lgc-Ir-68" value="&lt;span style=&quot;font-size: 16px;&quot;&gt;Ticket_Compra&lt;/span&gt;" style="whiteSpace=wrap;html=1;align=center;strokeWidth=2;fontStyle=1" parent="1" vertex="1">
          <mxGeometry x="980" y="-90" width="150" height="40" as="geometry" />
        </mxCell>
        <mxCell id="fioEPVJvo6Oif7lgc-Ir-69" style="rounded=0;orthogonalLoop=1;jettySize=auto;html=1;entryX=0.5;entryY=1;entryDx=0;entryDy=0;endArrow=none;endFill=0;exitX=0.5;exitY=0;exitDx=0;exitDy=0;" parent="1" source="fioEPVJvo6Oif7lgc-Ir-68" target="fioEPVJvo6Oif7lgc-Ir-42" edge="1">
          <mxGeometry relative="1" as="geometry">
            <mxPoint x="944.49" y="-139" as="targetPoint" />
            <mxPoint x="970" y="-80" as="sourcePoint" />
          </mxGeometry>
        </mxCell>
        <mxCell id="fioEPVJvo6Oif7lgc-Ir-73" style="rounded=0;orthogonalLoop=1;jettySize=auto;html=1;entryX=0.5;entryY=1;entryDx=0;entryDy=0;endArrow=none;endFill=0;exitX=0;exitY=0.5;exitDx=0;exitDy=0;" parent="1" source="CCVpfl_Kz8rF-1x_p7pF-4" target="Y-_55_ya9VjyHDabUnFr-36" edge="1">
          <mxGeometry relative="1" as="geometry">
            <mxPoint x="1196.1999999999998" y="84.01000000000022" as="targetPoint" />
            <mxPoint x="1081.04" y="84" as="sourcePoint" />
          </mxGeometry>
        </mxCell>
        <mxCell id="fioEPVJvo6Oif7lgc-Ir-75" value="&lt;font style=&quot;font-size: 16px;&quot;&gt;&lt;b&gt;Descuento&lt;br&gt;&lt;/b&gt;&lt;/font&gt;" style="ellipse;whiteSpace=wrap;html=1;align=center;shadow=0;strokeColor=default;strokeWidth=2;fontFamily=Helvetica;fontSize=12;fontColor=default;fillColor=default;" parent="1" vertex="1">
          <mxGeometry x="940" y="210" width="110" height="40" as="geometry" />
        </mxCell>
        <mxCell id="fioEPVJvo6Oif7lgc-Ir-76" style="rounded=0;orthogonalLoop=1;jettySize=auto;html=1;endArrow=none;endFill=0;exitX=1;exitY=0.5;exitDx=0;exitDy=0;entryX=0;entryY=0.5;entryDx=0;entryDy=0;" parent="1" source="Y-_55_ya9VjyHDabUnFr-51" target="fioEPVJvo6Oif7lgc-Ir-75" edge="1">
          <mxGeometry relative="1" as="geometry">
            <mxPoint x="950" y="-158" as="targetPoint" />
            <mxPoint x="956" y="-60" as="sourcePoint" />
          </mxGeometry>
        </mxCell>
        <mxCell id="fioEPVJvo6Oif7lgc-Ir-78" value="" style="shape=link;html=1;rounded=0;exitX=0.5;exitY=0;exitDx=0;exitDy=0;edgeStyle=orthogonalEdgeStyle;entryX=1;entryY=0.75;entryDx=0;entryDy=0;" parent="1" source="CCVpfl_Kz8rF-1x_p7pF-4" target="fioEPVJvo6Oif7lgc-Ir-68" edge="1">
          <mxGeometry relative="1" as="geometry">
            <mxPoint x="990" y="115" as="sourcePoint" />
            <mxPoint x="1390" y="-10" as="targetPoint" />
          </mxGeometry>
        </mxCell>
        <mxCell id="CCVpfl_Kz8rF-1x_p7pF-3" style="edgeStyle=orthogonalEdgeStyle;rounded=0;orthogonalLoop=1;jettySize=auto;html=1;exitX=1;exitY=0.5;exitDx=0;exitDy=0;entryX=0;entryY=0.25;entryDx=0;entryDy=0;shape=flexArrow;" parent="1" source="CCVpfl_Kz8rF-1x_p7pF-1" target="Q2EwYU6QEf5v0aBfxVkl-8" edge="1">
          <mxGeometry relative="1" as="geometry">
            <Array as="points">
              <mxPoint x="780" y="745" />
              <mxPoint x="780" y="405" />
            </Array>
          </mxGeometry>
        </mxCell>
        <mxCell id="CCVpfl_Kz8rF-1x_p7pF-1" value="&lt;span style=&quot;font-size: 18px;&quot;&gt;&lt;b&gt;Proveer&lt;/b&gt;&lt;/span&gt;" style="rhombus;whiteSpace=wrap;html=1;" parent="1" vertex="1">
          <mxGeometry x="575" y="720" width="150" height="50" as="geometry" />
        </mxCell>
        <mxCell id="CCVpfl_Kz8rF-1x_p7pF-4" value="Asignar" style="shape=rhombus;double=0;perimeter=rhombusPerimeter;whiteSpace=wrap;html=1;align=center;fontSize=21;strokeColor=default;recursiveResize=1;arcSize=20;" parent="1" vertex="1">
          <mxGeometry x="1337.5" y="90" width="135" height="60" as="geometry" />
        </mxCell>
        <mxCell id="Y-_55_ya9VjyHDabUnFr-1" value="&lt;font style=&quot;font-size: 16px;&quot;&gt;&lt;b&gt;indicacionMed&lt;/b&gt;&lt;/font&gt;" style="ellipse;shape=doubleEllipse;margin=3;whiteSpace=wrap;html=1;align=center;strokeWidth=2;" parent="1" vertex="1">
          <mxGeometry x="-740" y="1050" width="125.9" height="50.5" as="geometry" />
        </mxCell>
        <mxCell id="Y-_55_ya9VjyHDabUnFr-4" style="rounded=0;orthogonalLoop=1;jettySize=auto;html=1;exitX=1;exitY=0.5;exitDx=0;exitDy=0;entryX=0;entryY=0;entryDx=0;entryDy=0;endArrow=none;endFill=0;" parent="1" source="Y-_55_ya9VjyHDabUnFr-3" target="-d3J0LfeknoKQkhsuHQo-52" edge="1">
          <mxGeometry relative="1" as="geometry" />
        </mxCell>
        <mxCell id="Y-_55_ya9VjyHDabUnFr-3" value="&lt;b&gt;&lt;font style=&quot;font-size: 16px;&quot;&gt;&lt;u&gt;Id_Animal&lt;/u&gt;&lt;/font&gt;&lt;/b&gt;" style="ellipse;whiteSpace=wrap;html=1;align=center;shadow=0;strokeColor=default;strokeWidth=2;fontFamily=Helvetica;fontSize=12;fontColor=default;fillColor=default;" parent="1" vertex="1">
          <mxGeometry x="-690" y="940" width="110" height="40" as="geometry" />
        </mxCell>
        <mxCell id="Y-_55_ya9VjyHDabUnFr-6" style="rounded=0;orthogonalLoop=1;jettySize=auto;html=1;exitX=0.5;exitY=1;exitDx=0;exitDy=0;entryX=0.25;entryY=0;entryDx=0;entryDy=0;endArrow=none;endFill=0;" parent="1" source="Y-_55_ya9VjyHDabUnFr-5" target="cc5oqjslnrZ3DRCShtl0-1" edge="1">
          <mxGeometry relative="1" as="geometry" />
        </mxCell>
        <mxCell id="Y-_55_ya9VjyHDabUnFr-5" value="&lt;font size=&quot;1&quot;&gt;&lt;b style=&quot;font-size: 16px;&quot;&gt;Fecha_Nac&lt;/b&gt;&lt;/font&gt;" style="ellipse;whiteSpace=wrap;html=1;align=center;strokeWidth=2;" parent="1" vertex="1">
          <mxGeometry x="10" y="110" width="100" height="40" as="geometry" />
        </mxCell>
        <mxCell id="Y-_55_ya9VjyHDabUnFr-36" value="&lt;font size=&quot;1&quot;&gt;&lt;b style=&quot;font-size: 16px;&quot;&gt;cliente&lt;/b&gt;&lt;/font&gt;" style="ellipse;whiteSpace=wrap;html=1;align=center;dashed=1;" parent="1" vertex="1">
          <mxGeometry x="1241" y="190" width="110" height="40" as="geometry" />
        </mxCell>
        <mxCell id="Y-_55_ya9VjyHDabUnFr-38" value="&lt;span style=&quot;font-size: 16px;&quot;&gt;Servicio&lt;/span&gt;" style="whiteSpace=wrap;html=1;align=center;strokeWidth=2;fontStyle=1" parent="1" vertex="1">
          <mxGeometry x="630" y="345" width="100" height="40" as="geometry" />
        </mxCell>
        <mxCell id="Y-_55_ya9VjyHDabUnFr-45" style="rounded=0;orthogonalLoop=1;jettySize=auto;html=1;exitX=0.5;exitY=1;exitDx=0;exitDy=0;entryX=1;entryY=0;entryDx=0;entryDy=0;endArrow=none;endFill=0;" parent="1" source="Y-_55_ya9VjyHDabUnFr-43" target="fioEPVJvo6Oif7lgc-Ir-68" edge="1">
          <mxGeometry relative="1" as="geometry" />
        </mxCell>
        <mxCell id="Y-_55_ya9VjyHDabUnFr-43" value="&lt;font size=&quot;1&quot;&gt;&lt;b style=&quot;font-size: 16px;&quot;&gt;Cantidad_Prod&lt;/b&gt;&lt;/font&gt;" style="ellipse;whiteSpace=wrap;html=1;align=center;shadow=0;strokeColor=default;strokeWidth=2;fontFamily=Helvetica;fontSize=12;fontColor=default;fillColor=default;" parent="1" vertex="1">
          <mxGeometry x="1214.5" y="-190" width="145.5" height="40" as="geometry" />
        </mxCell>
        <mxCell id="Y-_55_ya9VjyHDabUnFr-52" style="edgeStyle=orthogonalEdgeStyle;rounded=0;orthogonalLoop=1;jettySize=auto;html=1;exitX=0.5;exitY=0;exitDx=0;exitDy=0;entryX=0;entryY=0.5;entryDx=0;entryDy=0;shape=link;" parent="1" source="Y-_55_ya9VjyHDabUnFr-51" target="NW1xn0FAbHoPEFOen06A-68" edge="1">
          <mxGeometry relative="1" as="geometry" />
        </mxCell>
        <mxCell id="Y-_55_ya9VjyHDabUnFr-53" style="edgeStyle=orthogonalEdgeStyle;rounded=0;orthogonalLoop=1;jettySize=auto;html=1;exitX=0.5;exitY=1;exitDx=0;exitDy=0;entryX=1;entryY=0.5;entryDx=0;entryDy=0;endArrow=classic;endFill=1;" parent="1" source="Y-_55_ya9VjyHDabUnFr-51" target="Y-_55_ya9VjyHDabUnFr-38" edge="1">
          <mxGeometry relative="1" as="geometry" />
        </mxCell>
        <mxCell id="Y-_55_ya9VjyHDabUnFr-51" value="&lt;font size=&quot;1&quot;&gt;&lt;b style=&quot;font-size: 18px;&quot;&gt;Registrar&lt;/b&gt;&lt;/font&gt;" style="rhombus;whiteSpace=wrap;html=1;" parent="1" vertex="1">
          <mxGeometry x="740" y="205" width="150" height="50" as="geometry" />
        </mxCell>
        <mxCell id="h0R60bCrYITGfhwR2ivO-2" value="&lt;font style=&quot;font-size: 16px;&quot;&gt;Persona&lt;/font&gt;" style="whiteSpace=wrap;html=1;align=center;strokeWidth=2;fontStyle=1" parent="1" vertex="1">
          <mxGeometry x="355.9" y="-120" width="100" height="40" as="geometry" />
        </mxCell>
        <mxCell id="h0R60bCrYITGfhwR2ivO-4" value="&lt;font size=&quot;1&quot;&gt;&lt;b style=&quot;font-size: 16px;&quot;&gt;Genero&lt;/b&gt;&lt;/font&gt;" style="ellipse;whiteSpace=wrap;html=1;align=center;strokeWidth=2;" parent="1" vertex="1">
          <mxGeometry x="490" y="-170" width="100" height="40" as="geometry" />
        </mxCell>
        <mxCell id="h0R60bCrYITGfhwR2ivO-6" value="&lt;font size=&quot;1&quot;&gt;&lt;b style=&quot;font-size: 16px;&quot;&gt;NombreC&lt;/b&gt;&lt;/font&gt;" style="ellipse;whiteSpace=wrap;html=1;align=center;strokeWidth=2;" parent="1" vertex="1">
          <mxGeometry x="400" y="-220" width="100" height="40" as="geometry" />
        </mxCell>
        <mxCell id="h0R60bCrYITGfhwR2ivO-7" value="&lt;font size=&quot;1&quot;&gt;&lt;b style=&quot;font-size: 16px;&quot;&gt;Nombre&lt;/b&gt;&lt;/font&gt;" style="ellipse;whiteSpace=wrap;html=1;align=center;strokeWidth=2;" parent="1" vertex="1">
          <mxGeometry x="300" y="-270" width="100" height="40" as="geometry" />
        </mxCell>
        <mxCell id="h0R60bCrYITGfhwR2ivO-8" value="&lt;font size=&quot;1&quot;&gt;&lt;b style=&quot;font-size: 16px;&quot;&gt;ApellidoPat&lt;/b&gt;&lt;/font&gt;" style="ellipse;whiteSpace=wrap;html=1;align=center;strokeWidth=2;" parent="1" vertex="1">
          <mxGeometry x="400" y="-320" width="100" height="40" as="geometry" />
        </mxCell>
        <mxCell id="h0R60bCrYITGfhwR2ivO-9" value="&lt;font size=&quot;1&quot;&gt;&lt;b style=&quot;font-size: 16px;&quot;&gt;ApellidoMat&lt;/b&gt;&lt;/font&gt;" style="ellipse;whiteSpace=wrap;html=1;align=center;strokeWidth=2;" parent="1" vertex="1">
          <mxGeometry x="500" y="-270" width="100" height="40" as="geometry" />
        </mxCell>
        <mxCell id="h0R60bCrYITGfhwR2ivO-10" value="&lt;font style=&quot;font-size: 16px;&quot;&gt;&lt;b&gt;Correo&lt;/b&gt;&lt;/font&gt;" style="ellipse;shape=doubleEllipse;margin=3;whiteSpace=wrap;html=1;align=center;" parent="1" vertex="1">
          <mxGeometry x="200" y="-170" width="100" height="40" as="geometry" />
        </mxCell>
        <mxCell id="h0R60bCrYITGfhwR2ivO-12" value="&lt;font style=&quot;font-size: 16px;&quot;&gt;&lt;b&gt;Telefono&lt;/b&gt;&lt;/font&gt;" style="ellipse;shape=doubleEllipse;margin=3;whiteSpace=wrap;html=1;align=center;" parent="1" vertex="1">
          <mxGeometry x="200" y="-100" width="100" height="40" as="geometry" />
        </mxCell>
        <mxCell id="h0R60bCrYITGfhwR2ivO-13" value="" style="endArrow=none;html=1;rounded=0;exitX=0.5;exitY=1;exitDx=0;exitDy=0;entryX=0.641;entryY=-0.05;entryDx=0;entryDy=0;strokeWidth=2;entryPerimeter=0;" parent="1" source="h0R60bCrYITGfhwR2ivO-6" target="h0R60bCrYITGfhwR2ivO-2" edge="1">
          <mxGeometry relative="1" as="geometry">
            <mxPoint x="290" y="70" as="sourcePoint" />
            <mxPoint x="450" y="70" as="targetPoint" />
          </mxGeometry>
        </mxCell>
        <mxCell id="h0R60bCrYITGfhwR2ivO-14" value="" style="endArrow=none;html=1;rounded=0;exitX=0;exitY=0.5;exitDx=0;exitDy=0;entryX=0.75;entryY=0;entryDx=0;entryDy=0;strokeWidth=2;" parent="1" source="h0R60bCrYITGfhwR2ivO-4" target="h0R60bCrYITGfhwR2ivO-2" edge="1">
          <mxGeometry relative="1" as="geometry">
            <mxPoint x="400" y="-170" as="sourcePoint" />
            <mxPoint x="416" y="-110" as="targetPoint" />
          </mxGeometry>
        </mxCell>
        <mxCell id="h0R60bCrYITGfhwR2ivO-15" value="" style="endArrow=none;html=1;rounded=0;exitX=0.74;exitY=0.975;exitDx=0;exitDy=0;entryX=0;entryY=0;entryDx=0;entryDy=0;strokeWidth=2;exitPerimeter=0;" parent="1" source="h0R60bCrYITGfhwR2ivO-7" target="h0R60bCrYITGfhwR2ivO-6" edge="1">
          <mxGeometry relative="1" as="geometry">
            <mxPoint x="470" y="-160" as="sourcePoint" />
            <mxPoint x="486" y="-100" as="targetPoint" />
          </mxGeometry>
        </mxCell>
        <mxCell id="h0R60bCrYITGfhwR2ivO-16" value="" style="endArrow=none;html=1;rounded=0;exitX=0.44;exitY=1;exitDx=0;exitDy=0;entryX=0.5;entryY=0;entryDx=0;entryDy=0;strokeWidth=2;exitPerimeter=0;" parent="1" source="h0R60bCrYITGfhwR2ivO-8" target="h0R60bCrYITGfhwR2ivO-6" edge="1">
          <mxGeometry relative="1" as="geometry">
            <mxPoint x="480" y="-150" as="sourcePoint" />
            <mxPoint x="496" y="-90" as="targetPoint" />
          </mxGeometry>
        </mxCell>
        <mxCell id="h0R60bCrYITGfhwR2ivO-17" value="" style="endArrow=none;html=1;rounded=0;exitX=0;exitY=1;exitDx=0;exitDy=0;entryX=1;entryY=0;entryDx=0;entryDy=0;strokeWidth=2;" parent="1" source="h0R60bCrYITGfhwR2ivO-9" target="h0R60bCrYITGfhwR2ivO-6" edge="1">
          <mxGeometry relative="1" as="geometry">
            <mxPoint x="490" y="-140" as="sourcePoint" />
            <mxPoint x="506" y="-80" as="targetPoint" />
          </mxGeometry>
        </mxCell>
        <mxCell id="h0R60bCrYITGfhwR2ivO-18" value="" style="endArrow=none;html=1;rounded=0;exitX=1;exitY=0.5;exitDx=0;exitDy=0;entryX=0;entryY=0;entryDx=0;entryDy=0;strokeWidth=2;" parent="1" source="h0R60bCrYITGfhwR2ivO-10" target="h0R60bCrYITGfhwR2ivO-2" edge="1">
          <mxGeometry relative="1" as="geometry">
            <mxPoint x="440" y="-130" as="sourcePoint" />
            <mxPoint x="456" y="-70" as="targetPoint" />
          </mxGeometry>
        </mxCell>
        <mxCell id="h0R60bCrYITGfhwR2ivO-19" value="" style="endArrow=none;html=1;rounded=0;exitX=0;exitY=0.5;exitDx=0;exitDy=0;entryX=1;entryY=0.5;entryDx=0;entryDy=0;strokeWidth=2;" parent="1" source="h0R60bCrYITGfhwR2ivO-2" target="h0R60bCrYITGfhwR2ivO-12" edge="1">
          <mxGeometry relative="1" as="geometry">
            <mxPoint x="450" y="-120" as="sourcePoint" />
            <mxPoint x="466" y="-60" as="targetPoint" />
          </mxGeometry>
        </mxCell>
        <mxCell id="h0R60bCrYITGfhwR2ivO-20" value="" style="triangle;whiteSpace=wrap;html=1;rotation=90;" parent="1" vertex="1">
          <mxGeometry x="375.9" y="-50" width="60" height="80" as="geometry" />
        </mxCell>
        <mxCell id="h0R60bCrYITGfhwR2ivO-21" value="&lt;b style=&quot;font-size: 18px;&quot;&gt;d&lt;/b&gt;" style="text;html=1;strokeColor=none;fillColor=none;align=center;verticalAlign=middle;whiteSpace=wrap;rounded=0;" parent="1" vertex="1">
          <mxGeometry x="375" y="-30" width="60" height="30" as="geometry" />
        </mxCell>
        <mxCell id="h0R60bCrYITGfhwR2ivO-22" value="" style="endArrow=none;html=1;rounded=0;exitX=1;exitY=0.5;exitDx=0;exitDy=0;entryX=0.833;entryY=0.586;entryDx=0;entryDy=0;entryPerimeter=0;strokeWidth=2;" parent="1" source="cc5oqjslnrZ3DRCShtl0-1" target="h0R60bCrYITGfhwR2ivO-20" edge="1">
          <mxGeometry width="50" height="50" relative="1" as="geometry">
            <mxPoint x="350" y="230" as="sourcePoint" />
            <mxPoint x="400" y="180" as="targetPoint" />
          </mxGeometry>
        </mxCell>
        <mxCell id="h0R60bCrYITGfhwR2ivO-23" value="" style="endArrow=none;html=1;rounded=0;entryX=0.5;entryY=1;entryDx=0;entryDy=0;exitX=0;exitY=0.5;exitDx=0;exitDy=0;strokeWidth=2;" parent="1" source="h0R60bCrYITGfhwR2ivO-20" target="h0R60bCrYITGfhwR2ivO-2" edge="1">
          <mxGeometry width="50" height="50" relative="1" as="geometry">
            <mxPoint x="470" y="230" as="sourcePoint" />
            <mxPoint x="520" y="180" as="targetPoint" />
          </mxGeometry>
        </mxCell>
        <mxCell id="h0R60bCrYITGfhwR2ivO-24" value="" style="endArrow=none;html=1;rounded=0;entryX=0.581;entryY=1;entryDx=0;entryDy=0;strokeWidth=2;entryPerimeter=0;" parent="1" target="h0R60bCrYITGfhwR2ivO-2" edge="1">
          <mxGeometry width="50" height="50" relative="1" as="geometry">
            <mxPoint x="414" y="-40" as="sourcePoint" />
            <mxPoint x="416" y="-70" as="targetPoint" />
          </mxGeometry>
        </mxCell>
        <mxCell id="h0R60bCrYITGfhwR2ivO-25" value="" style="endArrow=none;html=1;rounded=0;exitX=0.75;exitY=1;exitDx=0;exitDy=0;entryX=0.75;entryY=0;entryDx=0;entryDy=0;edgeStyle=orthogonalEdgeStyle;strokeWidth=2;" parent="1" source="h0R60bCrYITGfhwR2ivO-21" target="-d3J0LfeknoKQkhsuHQo-31" edge="1">
          <mxGeometry width="50" height="50" relative="1" as="geometry">
            <mxPoint x="890" y="210" as="sourcePoint" />
            <mxPoint x="940" y="160" as="targetPoint" />
            <Array as="points">
              <mxPoint x="420" y="11" />
              <mxPoint x="650" y="11" />
              <mxPoint x="650" y="-220" />
              <mxPoint x="1520" y="-220" />
              <mxPoint x="1520" y="320" />
              <mxPoint x="1430" y="320" />
            </Array>
          </mxGeometry>
        </mxCell>
        <mxCell id="Q2EwYU6QEf5v0aBfxVkl-7" style="rounded=0;orthogonalLoop=1;jettySize=auto;html=1;exitX=1;exitY=1;exitDx=0;exitDy=0;entryX=0.25;entryY=0;entryDx=0;entryDy=0;endArrow=none;endFill=0;strokeWidth=2;" parent="1" source="Q2EwYU6QEf5v0aBfxVkl-6" target="h0R60bCrYITGfhwR2ivO-2" edge="1">
          <mxGeometry relative="1" as="geometry" />
        </mxCell>
        <mxCell id="Q2EwYU6QEf5v0aBfxVkl-6" value="&lt;font size=&quot;1&quot;&gt;&lt;b&gt;&lt;u style=&quot;font-size: 16px;&quot;&gt;Id_Persona&lt;/u&gt;&lt;/b&gt;&lt;/font&gt;" style="ellipse;whiteSpace=wrap;html=1;align=center;strokeWidth=2;" parent="1" vertex="1">
          <mxGeometry x="205.9" y="-230" width="120" height="40" as="geometry" />
        </mxCell>
        <mxCell id="Q2EwYU6QEf5v0aBfxVkl-8" value="&lt;font style=&quot;font-size: 16px;&quot;&gt;&lt;span&gt;Producto&lt;/span&gt;&lt;/font&gt;" style="whiteSpace=wrap;html=1;align=center;strokeWidth=2;fontStyle=1" parent="1" vertex="1">
          <mxGeometry x="980" y="395" width="100" height="40" as="geometry" />
        </mxCell>
        <mxCell id="Q2EwYU6QEf5v0aBfxVkl-12" style="rounded=0;orthogonalLoop=1;jettySize=auto;html=1;exitX=0.5;exitY=1;exitDx=0;exitDy=0;entryX=0.5;entryY=0;entryDx=0;entryDy=0;endArrow=none;endFill=0;" parent="1" source="Q2EwYU6QEf5v0aBfxVkl-9" target="Q2EwYU6QEf5v0aBfxVkl-8" edge="1">
          <mxGeometry relative="1" as="geometry" />
        </mxCell>
        <mxCell id="Q2EwYU6QEf5v0aBfxVkl-9" value="&lt;span style=&quot;font-size: 16px;&quot;&gt;&lt;b&gt;Nombre&lt;/b&gt;&lt;/span&gt;" style="ellipse;whiteSpace=wrap;html=1;align=center;strokeWidth=1;dashed=1;" parent="1" vertex="1">
          <mxGeometry x="970" y="290" width="120" height="40" as="geometry" />
        </mxCell>
        <mxCell id="Q2EwYU6QEf5v0aBfxVkl-13" style="rounded=0;orthogonalLoop=1;jettySize=auto;html=1;exitX=0;exitY=1;exitDx=0;exitDy=0;entryX=1;entryY=0;entryDx=0;entryDy=0;endArrow=none;endFill=0;" parent="1" source="Q2EwYU6QEf5v0aBfxVkl-10" target="Q2EwYU6QEf5v0aBfxVkl-8" edge="1">
          <mxGeometry relative="1" as="geometry" />
        </mxCell>
        <mxCell id="Q2EwYU6QEf5v0aBfxVkl-10" value="&lt;span style=&quot;font-size: 16px;&quot;&gt;&lt;b&gt;Proveedor&lt;/b&gt;&lt;/span&gt;" style="ellipse;whiteSpace=wrap;html=1;align=center;strokeWidth=1;dashed=1;" parent="1" vertex="1">
          <mxGeometry x="1130" y="305" width="120" height="40" as="geometry" />
        </mxCell>
        <mxCell id="Q2EwYU6QEf5v0aBfxVkl-14" style="rounded=0;orthogonalLoop=1;jettySize=auto;html=1;exitX=0;exitY=0.5;exitDx=0;exitDy=0;entryX=1;entryY=0.5;entryDx=0;entryDy=0;endArrow=none;endFill=0;" parent="1" source="Q2EwYU6QEf5v0aBfxVkl-11" target="Q2EwYU6QEf5v0aBfxVkl-8" edge="1">
          <mxGeometry relative="1" as="geometry" />
        </mxCell>
        <mxCell id="Q2EwYU6QEf5v0aBfxVkl-11" value="&lt;b&gt;&lt;font style=&quot;font-size: 16px;&quot;&gt;&lt;u&gt;Id_Producto&lt;/u&gt;&lt;/font&gt;&lt;/b&gt;" style="ellipse;whiteSpace=wrap;html=1;align=center;strokeWidth=2;" parent="1" vertex="1">
          <mxGeometry x="1150" y="415" width="120" height="40" as="geometry" />
        </mxCell>
        <mxCell id="Q2EwYU6QEf5v0aBfxVkl-15" style="edgeStyle=orthogonalEdgeStyle;rounded=0;orthogonalLoop=1;jettySize=auto;html=1;exitX=0.5;exitY=1;exitDx=0;exitDy=0;entryX=0.5;entryY=0;entryDx=0;entryDy=0;shape=link;" parent="1" source="Q2EwYU6QEf5v0aBfxVkl-8" target="Q2EwYU6QEf5v0aBfxVkl-17" edge="1">
          <mxGeometry relative="1" as="geometry">
            <mxPoint x="1030" y="435" as="sourcePoint" />
          </mxGeometry>
        </mxCell>
        <mxCell id="Q2EwYU6QEf5v0aBfxVkl-16" value="" style="triangle;whiteSpace=wrap;html=1;shadow=0;strokeColor=default;strokeWidth=2;fontFamily=Helvetica;fontSize=12;fontColor=default;fillColor=default;rotation=90;" parent="1" vertex="1">
          <mxGeometry x="1000" y="505" width="60" height="80" as="geometry" />
        </mxCell>
        <mxCell id="Q2EwYU6QEf5v0aBfxVkl-18" style="rounded=0;orthogonalLoop=1;jettySize=auto;html=1;exitX=0.75;exitY=1;exitDx=0;exitDy=0;entryX=0.5;entryY=0;entryDx=0;entryDy=0;endArrow=none;endFill=0;" parent="1" edge="1">
          <mxGeometry relative="1" as="geometry">
            <mxPoint x="1040" y="555" as="sourcePoint" />
            <mxPoint x="1085" y="770" as="targetPoint" />
          </mxGeometry>
        </mxCell>
        <mxCell id="Q2EwYU6QEf5v0aBfxVkl-19" style="rounded=0;orthogonalLoop=1;jettySize=auto;html=1;exitX=0.25;exitY=1;exitDx=0;exitDy=0;entryX=0.75;entryY=1;entryDx=0;entryDy=0;endArrow=none;endFill=0;" parent="1" source="Q2EwYU6QEf5v0aBfxVkl-17" target="Y-_55_ya9VjyHDabUnFr-38" edge="1">
          <mxGeometry relative="1" as="geometry" />
        </mxCell>
        <mxCell id="Q2EwYU6QEf5v0aBfxVkl-17" value="&lt;font style=&quot;font-size: 16px;&quot;&gt;&lt;b&gt;d&lt;/b&gt;&lt;/font&gt;" style="text;html=1;strokeColor=none;fillColor=none;align=center;verticalAlign=middle;whiteSpace=wrap;rounded=0;fontSize=12;fontFamily=Helvetica;fontColor=default;" parent="1" vertex="1">
          <mxGeometry x="1000" y="525" width="60" height="30" as="geometry" />
        </mxCell>
        <mxCell id="NW1xn0FAbHoPEFOen06A-4" style="rounded=0;orthogonalLoop=1;jettySize=auto;html=1;exitX=1;exitY=1;exitDx=0;exitDy=0;entryX=0;entryY=0.25;entryDx=0;entryDy=0;endArrow=none;endFill=0;" parent="1" source="NW1xn0FAbHoPEFOen06A-2" target="cc5oqjslnrZ3DRCShtl0-52" edge="1">
          <mxGeometry relative="1" as="geometry" />
        </mxCell>
        <mxCell id="NW1xn0FAbHoPEFOen06A-2" value="&lt;font size=&quot;1&quot;&gt;&lt;b style=&quot;font-size: 16px;&quot;&gt;Hora_Entrada&lt;/b&gt;&lt;/font&gt;" style="ellipse;whiteSpace=wrap;html=1;align=center;strokeWidth=2;" parent="1" vertex="1">
          <mxGeometry x="-20" y="515" width="120" height="40" as="geometry" />
        </mxCell>
        <mxCell id="NW1xn0FAbHoPEFOen06A-5" style="rounded=0;orthogonalLoop=1;jettySize=auto;html=1;exitX=1;exitY=0.5;exitDx=0;exitDy=0;entryX=0;entryY=1;entryDx=0;entryDy=0;endArrow=none;endFill=0;" parent="1" source="NW1xn0FAbHoPEFOen06A-3" target="cc5oqjslnrZ3DRCShtl0-52" edge="1">
          <mxGeometry relative="1" as="geometry">
            <mxPoint x="120" y="600" as="targetPoint" />
          </mxGeometry>
        </mxCell>
        <mxCell id="NW1xn0FAbHoPEFOen06A-3" value="&lt;font size=&quot;1&quot;&gt;&lt;b style=&quot;font-size: 16px;&quot;&gt;Hora_Salida&lt;/b&gt;&lt;/font&gt;" style="ellipse;whiteSpace=wrap;html=1;align=center;strokeWidth=2;" parent="1" vertex="1">
          <mxGeometry x="-60" y="630" width="120" height="40" as="geometry" />
        </mxCell>
        <mxCell id="NW1xn0FAbHoPEFOen06A-9" value="&lt;font style=&quot;font-size: 16px;&quot;&gt;&lt;span&gt;Notificacion&lt;/span&gt;&lt;/font&gt;" style="whiteSpace=wrap;html=1;align=center;strokeWidth=2;fontStyle=1" parent="1" vertex="1">
          <mxGeometry x="1852.75" y="415" width="110" height="40" as="geometry" />
        </mxCell>
        <mxCell id="NW1xn0FAbHoPEFOen06A-10" value="&lt;font style=&quot;font-size: 16px;&quot;&gt;&lt;span&gt;Promocion&lt;/span&gt;&lt;/font&gt;" style="whiteSpace=wrap;html=1;align=center;strokeWidth=2;fontStyle=1" parent="1" vertex="1">
          <mxGeometry x="1652.75" y="605" width="132.5" height="40" as="geometry" />
        </mxCell>
        <mxCell id="NW1xn0FAbHoPEFOen06A-40" style="rounded=0;orthogonalLoop=1;jettySize=auto;html=1;exitX=0.75;exitY=1;exitDx=0;exitDy=0;entryX=0.5;entryY=0;entryDx=0;entryDy=0;endArrow=none;endFill=0;" parent="1" source="NW1xn0FAbHoPEFOen06A-11" target="NW1xn0FAbHoPEFOen06A-39" edge="1">
          <mxGeometry relative="1" as="geometry" />
        </mxCell>
        <mxCell id="NW1xn0FAbHoPEFOen06A-11" value="&lt;font style=&quot;font-size: 16px;&quot;&gt;&lt;span&gt;Descuento&lt;/span&gt;&lt;/font&gt;" style="whiteSpace=wrap;html=1;align=center;strokeWidth=2;fontStyle=1" parent="1" vertex="1">
          <mxGeometry x="1837.75" y="655" width="140" height="40" as="geometry" />
        </mxCell>
        <mxCell id="NW1xn0FAbHoPEFOen06A-12" value="&lt;font style=&quot;font-size: 16px;&quot;&gt;Noti_Evento&lt;/font&gt;" style="whiteSpace=wrap;html=1;align=center;strokeWidth=2;fontStyle=1" parent="1" vertex="1">
          <mxGeometry x="2030.25" y="605" width="110" height="40" as="geometry" />
        </mxCell>
        <mxCell id="NW1xn0FAbHoPEFOen06A-13" style="edgeStyle=orthogonalEdgeStyle;rounded=0;orthogonalLoop=1;jettySize=auto;html=1;exitX=0.5;exitY=1;exitDx=0;exitDy=0;entryX=0.5;entryY=0;entryDx=0;entryDy=0;shape=link;" parent="1" source="NW1xn0FAbHoPEFOen06A-9" edge="1">
          <mxGeometry relative="1" as="geometry">
            <mxPoint x="1907.75" y="455" as="sourcePoint" />
            <mxPoint x="1907.75" y="545" as="targetPoint" />
          </mxGeometry>
        </mxCell>
        <mxCell id="NW1xn0FAbHoPEFOen06A-14" value="" style="triangle;whiteSpace=wrap;html=1;shadow=0;strokeColor=default;strokeWidth=2;fontFamily=Helvetica;fontSize=12;fontColor=default;fillColor=default;rotation=90;" parent="1" vertex="1">
          <mxGeometry x="1877.75" y="525" width="60" height="80" as="geometry" />
        </mxCell>
        <mxCell id="NW1xn0FAbHoPEFOen06A-15" value="&lt;font style=&quot;font-size: 16px;&quot;&gt;&lt;b&gt;d&lt;/b&gt;&lt;/font&gt;" style="text;html=1;strokeColor=none;fillColor=none;align=center;verticalAlign=middle;whiteSpace=wrap;rounded=0;fontSize=12;fontFamily=Helvetica;fontColor=default;" parent="1" vertex="1">
          <mxGeometry x="1877.75" y="545" width="60" height="30" as="geometry" />
        </mxCell>
        <mxCell id="NW1xn0FAbHoPEFOen06A-25" style="edgeStyle=orthogonalEdgeStyle;rounded=0;orthogonalLoop=1;jettySize=auto;html=1;exitX=0;exitY=0.5;exitDx=0;exitDy=0;entryX=0.5;entryY=1;entryDx=0;entryDy=0;endArrow=none;endFill=0;" parent="1" source="NW1xn0FAbHoPEFOen06A-16" target="-d3J0LfeknoKQkhsuHQo-31" edge="1">
          <mxGeometry relative="1" as="geometry" />
        </mxCell>
        <mxCell id="NW1xn0FAbHoPEFOen06A-26" style="edgeStyle=orthogonalEdgeStyle;rounded=0;orthogonalLoop=1;jettySize=auto;html=1;exitX=1;exitY=0.5;exitDx=0;exitDy=0;entryX=0;entryY=0.5;entryDx=0;entryDy=0;endArrow=none;endFill=0;shape=link;" parent="1" source="NW1xn0FAbHoPEFOen06A-16" target="NW1xn0FAbHoPEFOen06A-9" edge="1">
          <mxGeometry relative="1" as="geometry" />
        </mxCell>
        <mxCell id="NW1xn0FAbHoPEFOen06A-16" value="&lt;font style=&quot;font-size: 18px;&quot;&gt;Recibir&lt;/font&gt;" style="shape=rhombus;perimeter=rhombusPerimeter;whiteSpace=wrap;html=1;align=center;" parent="1" vertex="1">
          <mxGeometry x="1557.75" y="405" width="160" height="60" as="geometry" />
        </mxCell>
        <mxCell id="NW1xn0FAbHoPEFOen06A-27" style="edgeStyle=orthogonalEdgeStyle;rounded=0;orthogonalLoop=1;jettySize=auto;html=1;exitX=0.5;exitY=1;exitDx=0;exitDy=0;entryX=0.5;entryY=0;entryDx=0;entryDy=0;shape=flexArrow;" parent="1" source="NW1xn0FAbHoPEFOen06A-17" target="NW1xn0FAbHoPEFOen06A-12" edge="1">
          <mxGeometry relative="1" as="geometry" />
        </mxCell>
        <mxCell id="NW1xn0FAbHoPEFOen06A-28" style="edgeStyle=orthogonalEdgeStyle;rounded=0;orthogonalLoop=1;jettySize=auto;html=1;exitX=0.5;exitY=0;exitDx=0;exitDy=0;entryX=0.5;entryY=1;entryDx=0;entryDy=0;" parent="1" source="NW1xn0FAbHoPEFOen06A-17" target="-d3J0LfeknoKQkhsuHQo-53" edge="1">
          <mxGeometry relative="1" as="geometry" />
        </mxCell>
        <mxCell id="NW1xn0FAbHoPEFOen06A-17" value="&lt;font style=&quot;font-size: 18px;&quot;&gt;Generar&lt;/font&gt;" style="shape=rhombus;perimeter=rhombusPerimeter;whiteSpace=wrap;html=1;align=center;" parent="1" vertex="1">
          <mxGeometry x="2067.25" y="405" width="160" height="60" as="geometry" />
        </mxCell>
        <mxCell id="NW1xn0FAbHoPEFOen06A-23" style="edgeStyle=orthogonalEdgeStyle;rounded=0;orthogonalLoop=1;jettySize=auto;html=1;exitX=1;exitY=0.5;exitDx=0;exitDy=0;entryX=0;entryY=0.5;entryDx=0;entryDy=0;endArrow=none;endFill=0;shape=link;" parent="1" source="NW1xn0FAbHoPEFOen06A-18" target="-d3J0LfeknoKQkhsuHQo-53" edge="1">
          <mxGeometry relative="1" as="geometry" />
        </mxCell>
        <mxCell id="NW1xn0FAbHoPEFOen06A-24" style="edgeStyle=orthogonalEdgeStyle;rounded=0;orthogonalLoop=1;jettySize=auto;html=1;exitX=0;exitY=0.5;exitDx=0;exitDy=0;entryX=1;entryY=0.5;entryDx=0;entryDy=0;endArrow=none;endFill=0;" parent="1" source="NW1xn0FAbHoPEFOen06A-18" target="-d3J0LfeknoKQkhsuHQo-31" edge="1">
          <mxGeometry relative="1" as="geometry" />
        </mxCell>
        <mxCell id="NW1xn0FAbHoPEFOen06A-18" value="&lt;font style=&quot;font-size: 18px;&quot;&gt;Asistir&lt;/font&gt;" style="shape=rhombus;perimeter=rhombusPerimeter;whiteSpace=wrap;html=1;align=center;" parent="1" vertex="1">
          <mxGeometry x="1807.75" y="195" width="160" height="60" as="geometry" />
        </mxCell>
        <mxCell id="NW1xn0FAbHoPEFOen06A-19" value="" style="endArrow=none;html=1;rounded=0;exitX=0.5;exitY=0;exitDx=0;exitDy=0;entryX=0.446;entryY=0.956;entryDx=0;entryDy=0;entryPerimeter=0;" parent="1" source="NW1xn0FAbHoPEFOen06A-18" target="NW1xn0FAbHoPEFOen06A-21" edge="1">
          <mxGeometry width="50" height="50" relative="1" as="geometry">
            <mxPoint x="1885.25" y="190" as="sourcePoint" />
            <mxPoint x="1852.75" y="170" as="targetPoint" />
          </mxGeometry>
        </mxCell>
        <mxCell id="NW1xn0FAbHoPEFOen06A-20" value="&lt;font size=&quot;1&quot;&gt;&lt;b style=&quot;font-size: 16px;&quot;&gt;Cliente&lt;/b&gt;&lt;/font&gt;" style="ellipse;whiteSpace=wrap;html=1;align=center;shadow=0;strokeColor=default;strokeWidth=1;fontFamily=Helvetica;fontSize=12;fontColor=default;fillColor=default;dashed=1;" parent="1" vertex="1">
          <mxGeometry x="1705.25" y="265" width="110" height="40" as="geometry" />
        </mxCell>
        <mxCell id="NW1xn0FAbHoPEFOen06A-21" value="&lt;font size=&quot;1&quot;&gt;&lt;b style=&quot;font-size: 16px;&quot;&gt;listaAsistentes&lt;/b&gt;&lt;/font&gt;" style="ellipse;whiteSpace=wrap;html=1;align=center;shadow=0;strokeColor=default;strokeWidth=1;fontFamily=Helvetica;fontSize=12;fontColor=default;fillColor=default;dashed=1;" parent="1" vertex="1">
          <mxGeometry x="1772.75" y="125" width="125.5" height="45" as="geometry" />
        </mxCell>
        <mxCell id="NW1xn0FAbHoPEFOen06A-22" style="rounded=0;orthogonalLoop=1;jettySize=auto;html=1;exitX=1;exitY=0;exitDx=0;exitDy=0;entryX=0;entryY=1;entryDx=0;entryDy=0;endArrow=none;endFill=0;" parent="1" source="NW1xn0FAbHoPEFOen06A-20" target="NW1xn0FAbHoPEFOen06A-18" edge="1">
          <mxGeometry relative="1" as="geometry">
            <mxPoint x="1845.25" y="235" as="targetPoint" />
          </mxGeometry>
        </mxCell>
        <mxCell id="NW1xn0FAbHoPEFOen06A-29" style="rounded=0;orthogonalLoop=1;jettySize=auto;html=1;exitX=0.5;exitY=0;exitDx=0;exitDy=0;entryX=0;entryY=0.25;entryDx=0;entryDy=0;endArrow=none;endFill=0;" parent="1" source="NW1xn0FAbHoPEFOen06A-14" target="NW1xn0FAbHoPEFOen06A-12" edge="1">
          <mxGeometry relative="1" as="geometry">
            <mxPoint x="1922.75" y="567.5" as="sourcePoint" />
            <mxPoint x="1967.75" y="782.5" as="targetPoint" />
          </mxGeometry>
        </mxCell>
        <mxCell id="NW1xn0FAbHoPEFOen06A-30" style="rounded=0;orthogonalLoop=1;jettySize=auto;html=1;exitX=1;exitY=0.5;exitDx=0;exitDy=0;entryX=0.5;entryY=0;entryDx=0;entryDy=0;endArrow=none;endFill=0;" parent="1" source="NW1xn0FAbHoPEFOen06A-14" target="NW1xn0FAbHoPEFOen06A-11" edge="1">
          <mxGeometry relative="1" as="geometry">
            <mxPoint x="1914.75" y="635" as="sourcePoint" />
            <mxPoint x="2017.75" y="685" as="targetPoint" />
          </mxGeometry>
        </mxCell>
        <mxCell id="NW1xn0FAbHoPEFOen06A-31" style="rounded=0;orthogonalLoop=1;jettySize=auto;html=1;exitX=0.5;exitY=1;exitDx=0;exitDy=0;entryX=1;entryY=0.25;entryDx=0;entryDy=0;endArrow=none;endFill=0;" parent="1" source="NW1xn0FAbHoPEFOen06A-14" target="NW1xn0FAbHoPEFOen06A-10" edge="1">
          <mxGeometry relative="1" as="geometry">
            <mxPoint x="1795.25" y="580" as="sourcePoint" />
            <mxPoint x="1898.25" y="630" as="targetPoint" />
          </mxGeometry>
        </mxCell>
        <mxCell id="NW1xn0FAbHoPEFOen06A-33" style="rounded=0;orthogonalLoop=1;jettySize=auto;html=1;exitX=0.5;exitY=1;exitDx=0;exitDy=0;entryX=0.5;entryY=0;entryDx=0;entryDy=0;endArrow=none;endFill=0;" parent="1" source="NW1xn0FAbHoPEFOen06A-32" target="NW1xn0FAbHoPEFOen06A-9" edge="1">
          <mxGeometry relative="1" as="geometry" />
        </mxCell>
        <mxCell id="NW1xn0FAbHoPEFOen06A-32" value="&lt;font size=&quot;1&quot;&gt;&lt;b&gt;&lt;u style=&quot;font-size: 16px;&quot;&gt;Id_Noti&lt;/u&gt;&lt;/b&gt;&lt;/font&gt;" style="ellipse;whiteSpace=wrap;html=1;align=center;shadow=0;strokeColor=default;strokeWidth=2;fontFamily=Helvetica;fontSize=12;fontColor=default;fillColor=default;" parent="1" vertex="1">
          <mxGeometry x="1886.75" y="325" width="110" height="40" as="geometry" />
        </mxCell>
        <mxCell id="NW1xn0FAbHoPEFOen06A-36" style="rounded=0;orthogonalLoop=1;jettySize=auto;html=1;exitX=0.5;exitY=0;exitDx=0;exitDy=0;entryX=0.5;entryY=1;entryDx=0;entryDy=0;endArrow=none;endFill=0;" parent="1" source="NW1xn0FAbHoPEFOen06A-35" target="huwh_n98xhKvYkgfeiNL-7" edge="1">
          <mxGeometry relative="1" as="geometry" />
        </mxCell>
        <mxCell id="NW1xn0FAbHoPEFOen06A-35" value="&lt;font size=&quot;1&quot;&gt;&lt;b style=&quot;font-size: 16px;&quot;&gt;Bioma_Distr&lt;/b&gt;&lt;/font&gt;" style="ellipse;whiteSpace=wrap;html=1;align=center;dashed=1;" parent="1" vertex="1">
          <mxGeometry x="510" y="950" width="120" height="40" as="geometry" />
        </mxCell>
        <mxCell id="NW1xn0FAbHoPEFOen06A-38" style="rounded=0;orthogonalLoop=1;jettySize=auto;html=1;exitX=0.5;exitY=0;exitDx=0;exitDy=0;entryX=0.25;entryY=1;entryDx=0;entryDy=0;endArrow=none;endFill=0;" parent="1" source="NW1xn0FAbHoPEFOen06A-37" target="NW1xn0FAbHoPEFOen06A-11" edge="1">
          <mxGeometry relative="1" as="geometry" />
        </mxCell>
        <mxCell id="NW1xn0FAbHoPEFOen06A-37" value="&lt;font style=&quot;font-size: 16px;&quot;&gt;&lt;b&gt;Porcentaje_Desc&lt;br&gt;&lt;/b&gt;&lt;/font&gt;" style="ellipse;whiteSpace=wrap;html=1;align=center;shadow=0;strokeColor=default;strokeWidth=2;fontFamily=Helvetica;fontSize=12;fontColor=default;fillColor=default;" parent="1" vertex="1">
          <mxGeometry x="1767.75" y="720" width="140" height="40" as="geometry" />
        </mxCell>
        <mxCell id="NW1xn0FAbHoPEFOen06A-39" value="&lt;font size=&quot;1&quot;&gt;&lt;b style=&quot;font-size: 16px;&quot;&gt;Nombre_Art&lt;/b&gt;&lt;/font&gt;" style="ellipse;whiteSpace=wrap;html=1;align=center;strokeWidth=1;dashed=1;" parent="1" vertex="1">
          <mxGeometry x="1854.25" y="765" width="142.5" height="40" as="geometry" />
        </mxCell>
        <mxCell id="NW1xn0FAbHoPEFOen06A-42" style="rounded=0;orthogonalLoop=1;jettySize=auto;html=1;exitX=0.5;exitY=0;exitDx=0;exitDy=0;entryX=0;entryY=0;entryDx=0;entryDy=0;endArrow=none;endFill=0;" parent="1" source="NW1xn0FAbHoPEFOen06A-41" target="NW1xn0FAbHoPEFOen06A-10" edge="1">
          <mxGeometry relative="1" as="geometry" />
        </mxCell>
        <mxCell id="NW1xn0FAbHoPEFOen06A-41" value="&lt;b&gt;&lt;font style=&quot;font-size: 16px;&quot;&gt;Tipo_Promo&lt;/font&gt;&lt;/b&gt;" style="ellipse;whiteSpace=wrap;html=1;align=center;shadow=0;strokeColor=default;strokeWidth=2;fontFamily=Helvetica;fontSize=12;fontColor=default;fillColor=default;" parent="1" vertex="1">
          <mxGeometry x="1540" y="540" width="110" height="40" as="geometry" />
        </mxCell>
        <mxCell id="NW1xn0FAbHoPEFOen06A-43" style="rounded=0;orthogonalLoop=1;jettySize=auto;html=1;exitX=0.689;exitY=-0.025;exitDx=0;exitDy=0;entryX=0.5;entryY=0;entryDx=0;entryDy=0;endArrow=none;endFill=0;exitPerimeter=0;" parent="1" source="NW1xn0FAbHoPEFOen06A-10" target="NW1xn0FAbHoPEFOen06A-44" edge="1">
          <mxGeometry relative="1" as="geometry">
            <mxPoint x="1735.25" y="645" as="sourcePoint" />
          </mxGeometry>
        </mxCell>
        <mxCell id="NW1xn0FAbHoPEFOen06A-44" value="&lt;font size=&quot;1&quot;&gt;&lt;b style=&quot;font-size: 16px;&quot;&gt;Nombre_Art&lt;/b&gt;&lt;/font&gt;" style="ellipse;whiteSpace=wrap;html=1;align=center;strokeWidth=1;dashed=1;" parent="1" vertex="1">
          <mxGeometry x="1717.75" y="525" width="142.5" height="40" as="geometry" />
        </mxCell>
        <mxCell id="NW1xn0FAbHoPEFOen06A-66" style="rounded=0;orthogonalLoop=1;jettySize=auto;html=1;exitX=1;exitY=0.5;exitDx=0;exitDy=0;entryX=0;entryY=0.5;entryDx=0;entryDy=0;endArrow=none;endFill=0;" parent="1" source="NW1xn0FAbHoPEFOen06A-45" target="NW1xn0FAbHoPEFOen06A-65" edge="1">
          <mxGeometry relative="1" as="geometry" />
        </mxCell>
        <mxCell id="NW1xn0FAbHoPEFOen06A-45" value="&lt;font style=&quot;font-size: 16px;&quot;&gt;&lt;span&gt;Articulo&lt;/span&gt;&lt;/font&gt;" style="whiteSpace=wrap;html=1;align=center;strokeWidth=2;fontStyle=1" parent="1" vertex="1">
          <mxGeometry x="1500" y="895" width="115" height="40" as="geometry" />
        </mxCell>
        <mxCell id="NW1xn0FAbHoPEFOen06A-48" style="edgeStyle=orthogonalEdgeStyle;rounded=0;orthogonalLoop=1;jettySize=auto;html=1;exitX=0.5;exitY=0;exitDx=0;exitDy=0;entryX=0.5;entryY=1;entryDx=0;entryDy=0;endArrow=none;endFill=0;shape=link;" parent="1" source="NW1xn0FAbHoPEFOen06A-46" target="NW1xn0FAbHoPEFOen06A-85" edge="1">
          <mxGeometry relative="1" as="geometry">
            <Array as="points">
              <mxPoint x="1355" y="580" />
              <mxPoint x="1315" y="580" />
              <mxPoint x="1315" y="280" />
              <mxPoint x="1190" y="280" />
            </Array>
          </mxGeometry>
        </mxCell>
        <mxCell id="NW1xn0FAbHoPEFOen06A-49" style="edgeStyle=orthogonalEdgeStyle;rounded=0;orthogonalLoop=1;jettySize=auto;html=1;exitX=0.5;exitY=1;exitDx=0;exitDy=0;entryX=0;entryY=0.5;entryDx=0;entryDy=0;endArrow=none;endFill=0;" parent="1" source="NW1xn0FAbHoPEFOen06A-46" target="NW1xn0FAbHoPEFOen06A-45" edge="1">
          <mxGeometry relative="1" as="geometry" />
        </mxCell>
        <mxCell id="NW1xn0FAbHoPEFOen06A-46" value="&lt;font style=&quot;font-size: 18px;&quot;&gt;Asociar&lt;/font&gt;" style="shape=rhombus;perimeter=rhombusPerimeter;whiteSpace=wrap;html=1;align=center;" parent="1" vertex="1">
          <mxGeometry x="1290" y="610" width="130" height="60" as="geometry" />
        </mxCell>
        <mxCell id="NW1xn0FAbHoPEFOen06A-55" style="edgeStyle=orthogonalEdgeStyle;rounded=0;orthogonalLoop=1;jettySize=auto;html=1;exitX=0.5;exitY=1;exitDx=0;exitDy=0;entryX=0.5;entryY=0;entryDx=0;entryDy=0;" parent="1" source="NW1xn0FAbHoPEFOen06A-50" target="NW1xn0FAbHoPEFOen06A-45" edge="1">
          <mxGeometry relative="1" as="geometry" />
        </mxCell>
        <mxCell id="NW1xn0FAbHoPEFOen06A-57" style="edgeStyle=orthogonalEdgeStyle;rounded=0;orthogonalLoop=1;jettySize=auto;html=1;exitX=0.5;exitY=0;exitDx=0;exitDy=0;entryX=0;entryY=0.5;entryDx=0;entryDy=0;shape=flexArrow;" parent="1" source="NW1xn0FAbHoPEFOen06A-50" target="NW1xn0FAbHoPEFOen06A-10" edge="1">
          <mxGeometry relative="1" as="geometry" />
        </mxCell>
        <mxCell id="NW1xn0FAbHoPEFOen06A-50" value="&lt;font style=&quot;font-size: 18px;&quot;&gt;Producir&lt;/font&gt;" style="shape=rhombus;perimeter=rhombusPerimeter;whiteSpace=wrap;html=1;align=center;" parent="1" vertex="1">
          <mxGeometry x="1492.5" y="705" width="130" height="60" as="geometry" />
        </mxCell>
        <mxCell id="NW1xn0FAbHoPEFOen06A-53" style="edgeStyle=orthogonalEdgeStyle;rounded=0;orthogonalLoop=1;jettySize=auto;html=1;exitX=0;exitY=0.5;exitDx=0;exitDy=0;entryX=0.5;entryY=0;entryDx=0;entryDy=0;" parent="1" source="NW1xn0FAbHoPEFOen06A-51" target="NW1xn0FAbHoPEFOen06A-45" edge="1">
          <mxGeometry relative="1" as="geometry" />
        </mxCell>
        <mxCell id="NW1xn0FAbHoPEFOen06A-54" style="edgeStyle=orthogonalEdgeStyle;rounded=0;orthogonalLoop=1;jettySize=auto;html=1;exitX=0.5;exitY=0;exitDx=0;exitDy=0;entryX=0;entryY=0.5;entryDx=0;entryDy=0;shape=flexArrow;" parent="1" source="NW1xn0FAbHoPEFOen06A-51" target="NW1xn0FAbHoPEFOen06A-11" edge="1">
          <mxGeometry relative="1" as="geometry" />
        </mxCell>
        <mxCell id="NW1xn0FAbHoPEFOen06A-51" value="&lt;font style=&quot;font-size: 18px;&quot;&gt;Hacer&lt;/font&gt;" style="shape=rhombus;perimeter=rhombusPerimeter;whiteSpace=wrap;html=1;align=center;" parent="1" vertex="1">
          <mxGeometry x="1677.75" y="770" width="130" height="60" as="geometry" />
        </mxCell>
        <mxCell id="NW1xn0FAbHoPEFOen06A-65" value="&lt;span style=&quot;font-size: 16px;&quot;&gt;&lt;b&gt;Cantidad_Arts&lt;/b&gt;&lt;/span&gt;" style="ellipse;whiteSpace=wrap;html=1;align=center;strokeWidth=2;" parent="1" vertex="1">
          <mxGeometry x="1671.5" y="895" width="130" height="40" as="geometry" />
        </mxCell>
        <mxCell id="NW1xn0FAbHoPEFOen06A-67" style="rounded=0;orthogonalLoop=1;jettySize=auto;html=1;entryX=0.25;entryY=0;entryDx=0;entryDy=0;endArrow=none;endFill=0;exitX=0.5;exitY=0;exitDx=0;exitDy=0;" parent="1" source="Q2EwYU6QEf5v0aBfxVkl-16" target="NW1xn0FAbHoPEFOen06A-45" edge="1">
          <mxGeometry relative="1" as="geometry">
            <mxPoint x="1195" y="550" as="sourcePoint" />
            <mxPoint x="1240" y="765" as="targetPoint" />
          </mxGeometry>
        </mxCell>
        <mxCell id="NW1xn0FAbHoPEFOen06A-68" value="&lt;span style=&quot;font-size: 16px;&quot;&gt;Ticket_Serv&lt;/span&gt;" style="whiteSpace=wrap;html=1;align=center;strokeWidth=2;fontStyle=1" parent="1" vertex="1">
          <mxGeometry x="875" y="115" width="135" height="40" as="geometry" />
        </mxCell>
        <mxCell id="NW1xn0FAbHoPEFOen06A-79" style="edgeStyle=orthogonalEdgeStyle;rounded=0;orthogonalLoop=1;jettySize=auto;html=1;exitX=0.5;exitY=1;exitDx=0;exitDy=0;entryX=0.5;entryY=0;entryDx=0;entryDy=0;shape=link;" parent="1" source="fioEPVJvo6Oif7lgc-Ir-68" target="NW1xn0FAbHoPEFOen06A-81" edge="1">
          <mxGeometry relative="1" as="geometry">
            <mxPoint x="1060" y="-55" as="sourcePoint" />
          </mxGeometry>
        </mxCell>
        <mxCell id="NW1xn0FAbHoPEFOen06A-80" value="" style="triangle;whiteSpace=wrap;html=1;shadow=0;strokeColor=default;strokeWidth=2;fontFamily=Helvetica;fontSize=12;fontColor=default;fillColor=default;rotation=90;" parent="1" vertex="1">
          <mxGeometry x="1025" y="20" width="60" height="80" as="geometry" />
        </mxCell>
        <mxCell id="NW1xn0FAbHoPEFOen06A-81" value="&lt;font style=&quot;font-size: 16px;&quot;&gt;&lt;b&gt;d&lt;/b&gt;&lt;/font&gt;" style="text;html=1;strokeColor=none;fillColor=none;align=center;verticalAlign=middle;whiteSpace=wrap;rounded=0;fontSize=12;fontFamily=Helvetica;fontColor=default;" parent="1" vertex="1">
          <mxGeometry x="1025" y="40" width="60" height="30" as="geometry" />
        </mxCell>
        <mxCell id="NW1xn0FAbHoPEFOen06A-84" style="rounded=0;orthogonalLoop=1;jettySize=auto;html=1;exitX=0.5;exitY=1;exitDx=0;exitDy=0;entryX=0.5;entryY=0;entryDx=0;entryDy=0;endArrow=none;endFill=0;" parent="1" source="NW1xn0FAbHoPEFOen06A-80" target="NW1xn0FAbHoPEFOen06A-68" edge="1">
          <mxGeometry relative="1" as="geometry">
            <mxPoint x="1093" y="170" as="sourcePoint" />
            <mxPoint x="990" y="220" as="targetPoint" />
          </mxGeometry>
        </mxCell>
        <mxCell id="NW1xn0FAbHoPEFOen06A-85" value="&lt;span style=&quot;font-size: 16px;&quot;&gt;Ticket_Art&lt;/span&gt;" style="whiteSpace=wrap;html=1;align=center;strokeWidth=2;fontStyle=1" parent="1" vertex="1">
          <mxGeometry x="1130" y="125" width="120" height="40" as="geometry" />
        </mxCell>
        <mxCell id="NW1xn0FAbHoPEFOen06A-86" style="rounded=0;orthogonalLoop=1;jettySize=auto;html=1;exitX=0.5;exitY=0;exitDx=0;exitDy=0;entryX=0.5;entryY=0;entryDx=0;entryDy=0;endArrow=none;endFill=0;" parent="1" source="NW1xn0FAbHoPEFOen06A-80" target="NW1xn0FAbHoPEFOen06A-85" edge="1">
          <mxGeometry relative="1" as="geometry">
            <mxPoint x="1112.5" y="30" as="sourcePoint" />
            <mxPoint x="1214.5" y="80" as="targetPoint" />
          </mxGeometry>
        </mxCell>
        <mxCell id="NW1xn0FAbHoPEFOen06A-88" style="rounded=0;orthogonalLoop=1;jettySize=auto;html=1;exitX=0.5;exitY=1;exitDx=0;exitDy=0;entryX=0.75;entryY=0;entryDx=0;entryDy=0;endArrow=none;endFill=0;" parent="1" source="NW1xn0FAbHoPEFOen06A-87" target="cc5oqjslnrZ3DRCShtl0-53" edge="1">
          <mxGeometry relative="1" as="geometry" />
        </mxCell>
        <mxCell id="NW1xn0FAbHoPEFOen06A-87" value="&lt;span style=&quot;font-size: 16px;&quot;&gt;&lt;b&gt;Comision&lt;/b&gt;&lt;/span&gt;" style="ellipse;whiteSpace=wrap;html=1;align=center;strokeWidth=1;dashed=1;" parent="1" vertex="1">
          <mxGeometry x="470" y="455" width="120" height="40" as="geometry" />
        </mxCell>
        <mxCell id="NW1xn0FAbHoPEFOen06A-92" style="rounded=0;orthogonalLoop=1;jettySize=auto;html=1;exitX=0.5;exitY=1;exitDx=0;exitDy=0;entryX=1;entryY=0;entryDx=0;entryDy=0;endArrow=none;endFill=0;" parent="1" source="NW1xn0FAbHoPEFOen06A-89" target="NW1xn0FAbHoPEFOen06A-46" edge="1">
          <mxGeometry relative="1" as="geometry" />
        </mxCell>
        <mxCell id="NW1xn0FAbHoPEFOen06A-89" value="&lt;b&gt;&lt;font style=&quot;font-size: 16px;&quot;&gt;nombreArt&lt;/font&gt;&lt;/b&gt;" style="ellipse;whiteSpace=wrap;html=1;align=center;shadow=0;strokeColor=default;strokeWidth=1;fontFamily=Helvetica;fontSize=12;fontColor=default;fillColor=default;dashed=1;" parent="1" vertex="1">
          <mxGeometry x="1360" y="540" width="150" height="40" as="geometry" />
        </mxCell>
        <mxCell id="NW1xn0FAbHoPEFOen06A-91" style="rounded=0;orthogonalLoop=1;jettySize=auto;html=1;exitX=0.5;exitY=1;exitDx=0;exitDy=0;entryX=0;entryY=0.5;entryDx=0;entryDy=0;endArrow=none;endFill=0;" parent="1" source="NW1xn0FAbHoPEFOen06A-90" target="NW1xn0FAbHoPEFOen06A-46" edge="1">
          <mxGeometry relative="1" as="geometry" />
        </mxCell>
        <mxCell id="NW1xn0FAbHoPEFOen06A-90" value="&lt;font size=&quot;1&quot;&gt;&lt;b style=&quot;font-size: 16px;&quot;&gt;costoArt&lt;/b&gt;&lt;/font&gt;" style="ellipse;whiteSpace=wrap;html=1;align=center;dashed=1;" parent="1" vertex="1">
          <mxGeometry x="1155.5" y="575" width="134.5" height="40" as="geometry" />
        </mxCell>
        <mxCell id="NW1xn0FAbHoPEFOen06A-96" style="rounded=0;orthogonalLoop=1;jettySize=auto;html=1;exitX=0.5;exitY=1;exitDx=0;exitDy=0;entryX=0.25;entryY=0;entryDx=0;entryDy=0;endArrow=none;endFill=0;" parent="1" source="NW1xn0FAbHoPEFOen06A-95" target="Q2EwYU6QEf5v0aBfxVkl-8" edge="1">
          <mxGeometry relative="1" as="geometry" />
        </mxCell>
        <mxCell id="NW1xn0FAbHoPEFOen06A-95" value="&lt;span style=&quot;font-size: 16px;&quot;&gt;&lt;b&gt;Costo&lt;/b&gt;&lt;/span&gt;" style="ellipse;whiteSpace=wrap;html=1;align=center;strokeWidth=1;dashed=1;" parent="1" vertex="1">
          <mxGeometry x="850" y="310" width="120" height="40" as="geometry" />
        </mxCell>
        <mxCell id="NW1xn0FAbHoPEFOen06A-105" style="rounded=0;orthogonalLoop=1;jettySize=auto;html=1;exitX=0;exitY=0.5;exitDx=0;exitDy=0;entryX=1;entryY=0.5;entryDx=0;entryDy=0;endArrow=none;endFill=0;" parent="1" source="NW1xn0FAbHoPEFOen06A-97" target="NW1xn0FAbHoPEFOen06A-11" edge="1">
          <mxGeometry relative="1" as="geometry" />
        </mxCell>
        <mxCell id="NW1xn0FAbHoPEFOen06A-97" value="&lt;b&gt;&lt;font style=&quot;font-size: 16px;&quot;&gt;Fecha_Inicio&lt;/font&gt;&lt;/b&gt;" style="ellipse;whiteSpace=wrap;html=1;align=center;shadow=0;strokeColor=default;strokeWidth=2;fontFamily=Helvetica;fontSize=12;fontColor=default;fillColor=default;" parent="1" vertex="1">
          <mxGeometry x="2013" y="680" width="110" height="40" as="geometry" />
        </mxCell>
        <mxCell id="NW1xn0FAbHoPEFOen06A-98" value="&lt;b&gt;&lt;font style=&quot;font-size: 16px;&quot;&gt;Fecha_Fin&lt;/font&gt;&lt;/b&gt;" style="ellipse;whiteSpace=wrap;html=1;align=center;shadow=0;strokeColor=default;strokeWidth=2;fontFamily=Helvetica;fontSize=12;fontColor=default;fillColor=default;" parent="1" vertex="1">
          <mxGeometry x="2000" y="740" width="110" height="40" as="geometry" />
        </mxCell>
        <mxCell id="NW1xn0FAbHoPEFOen06A-101" style="rounded=0;orthogonalLoop=1;jettySize=auto;html=1;exitX=1;exitY=1;exitDx=0;exitDy=0;entryX=0.25;entryY=0;entryDx=0;entryDy=0;endArrow=none;endFill=0;" parent="1" source="NW1xn0FAbHoPEFOen06A-99" target="NW1xn0FAbHoPEFOen06A-10" edge="1">
          <mxGeometry relative="1" as="geometry" />
        </mxCell>
        <mxCell id="NW1xn0FAbHoPEFOen06A-99" value="&lt;b&gt;&lt;font style=&quot;font-size: 16px;&quot;&gt;Fecha_Inicio&lt;/font&gt;&lt;/b&gt;" style="ellipse;whiteSpace=wrap;html=1;align=center;shadow=0;strokeColor=default;strokeWidth=2;fontFamily=Helvetica;fontSize=12;fontColor=default;fillColor=default;" parent="1" vertex="1">
          <mxGeometry x="1540" y="470" width="110" height="40" as="geometry" />
        </mxCell>
        <mxCell id="NW1xn0FAbHoPEFOen06A-102" style="rounded=0;orthogonalLoop=1;jettySize=auto;html=1;exitX=0.5;exitY=1;exitDx=0;exitDy=0;entryX=0.376;entryY=0.046;entryDx=0;entryDy=0;endArrow=none;endFill=0;entryPerimeter=0;" parent="1" source="NW1xn0FAbHoPEFOen06A-100" target="NW1xn0FAbHoPEFOen06A-10" edge="1">
          <mxGeometry relative="1" as="geometry" />
        </mxCell>
        <mxCell id="NW1xn0FAbHoPEFOen06A-100" value="&lt;b&gt;&lt;font style=&quot;font-size: 16px;&quot;&gt;Fecha_Fin&lt;/font&gt;&lt;/b&gt;" style="ellipse;whiteSpace=wrap;html=1;align=center;shadow=0;strokeColor=default;strokeWidth=2;fontFamily=Helvetica;fontSize=12;fontColor=default;fillColor=default;" parent="1" vertex="1">
          <mxGeometry x="1662.75" y="475" width="110" height="40" as="geometry" />
        </mxCell>
        <mxCell id="NW1xn0FAbHoPEFOen06A-104" style="rounded=0;orthogonalLoop=1;jettySize=auto;html=1;exitX=0;exitY=0.5;exitDx=0;exitDy=0;entryX=0.922;entryY=0.975;entryDx=0;entryDy=0;entryPerimeter=0;endArrow=none;endFill=0;" parent="1" source="NW1xn0FAbHoPEFOen06A-98" target="NW1xn0FAbHoPEFOen06A-11" edge="1">
          <mxGeometry relative="1" as="geometry" />
        </mxCell>
        <mxCell id="NW1xn0FAbHoPEFOen06A-108" style="rounded=0;orthogonalLoop=1;jettySize=auto;html=1;exitX=0;exitY=0;exitDx=0;exitDy=0;entryX=1;entryY=1;entryDx=0;entryDy=0;endArrow=none;endFill=0;" parent="1" source="NW1xn0FAbHoPEFOen06A-106" target="NW1xn0FAbHoPEFOen06A-46" edge="1">
          <mxGeometry relative="1" as="geometry" />
        </mxCell>
        <mxCell id="NW1xn0FAbHoPEFOen06A-106" value="&lt;b&gt;&lt;font style=&quot;font-size: 16px;&quot;&gt;DescuentoArt&lt;/font&gt;&lt;/b&gt;" style="ellipse;whiteSpace=wrap;html=1;align=center;shadow=0;strokeColor=default;strokeWidth=1;fontFamily=Helvetica;fontSize=12;fontColor=default;fillColor=default;dashed=1;" parent="1" vertex="1">
          <mxGeometry x="1380" y="750" width="150" height="40" as="geometry" />
        </mxCell>
        <mxCell id="NW1xn0FAbHoPEFOen06A-110" style="rounded=0;orthogonalLoop=1;jettySize=auto;html=1;exitX=0.5;exitY=0;exitDx=0;exitDy=0;entryX=1;entryY=0.5;entryDx=0;entryDy=0;endArrow=none;endFill=0;" parent="1" source="NW1xn0FAbHoPEFOen06A-107" target="NW1xn0FAbHoPEFOen06A-46" edge="1">
          <mxGeometry relative="1" as="geometry" />
        </mxCell>
        <mxCell id="NW1xn0FAbHoPEFOen06A-107" value="&lt;b&gt;&lt;font style=&quot;font-size: 16px;&quot;&gt;PromoArt&lt;/font&gt;&lt;/b&gt;" style="ellipse;whiteSpace=wrap;html=1;align=center;shadow=0;strokeColor=default;strokeWidth=1;fontFamily=Helvetica;fontSize=12;fontColor=default;fillColor=default;dashed=1;" parent="1" vertex="1">
          <mxGeometry x="1410" y="655" width="130" height="40" as="geometry" />
        </mxCell>
      </root>
    </mxGraphModel>
  </diagram>
</mxfile>
